<?xml version="1.0" standalone="no"?>
<!DOCTYPE svg PUBLIC "-//W3C//DTD SVG 20010904//EN"
 "http://www.w3.org/TR/2001/REC-SVG-20010904/DTD/svg10.dtd">
<svg version="1.0" xmlns="http://www.w3.org/2000/svg"
 width="536.000000pt" height="536.000000pt" viewBox="0 0 536.000000 536.000000"
 preserveAspectRatio="xMidYMid meet">

<g transform="translate(0.000000,536.000000) scale(0.100000,-0.100000)"
fill="#000000" stroke="none">
<path d="M2555 5354 c-321 -19 -610 -84 -895 -201 -91 -37 -252 -116 -285
-140 -19 -14 -19 -14 10 -12 48 5 61 -9 34 -37 -26 -28 -20 -51 18 -60 29 -7
63 -31 63 -45 0 -9 -70 -30 -79 -24 -14 8 -10 -43 4 -55 7 -6 49 -12 92 -13
57 -1 81 -6 90 -17 14 -17 17 -50 6 -50 -5 0 -9 -14 -10 -32 -2 -27 7 -40 62
-92 37 -35 67 -73 71 -89 6 -24 3 -28 -25 -33 -23 -5 -31 -12 -31 -28 0 -12
-7 -31 -15 -42 -13 -16 -16 -17 -24 -4 -5 8 -18 25 -29 38 l-21 23 -20 -20
c-36 -36 -22 -91 21 -91 10 0 31 8 45 18 15 9 24 11 20 5 -5 -7 -4 -13 0 -13
5 0 9 -12 8 -27 0 -27 3 -28 60 -34 80 -9 98 -30 89 -110 l-6 -57 68 1 c58 2
69 5 72 20 2 11 -7 31 -21 45 -28 31 -117 164 -117 176 0 4 -9 19 -20 33 -11
14 -20 33 -20 42 1 14 2 14 14 -2 10 -13 15 -15 18 -5 5 15 74 -41 99 -81 27
-44 178 -185 221 -207 28 -15 37 -23 27 -27 -9 -4 -7 -6 6 -4 21 2 49 -21 84
-70 25 -37 46 -42 60 -14 6 10 24 24 41 31 25 10 34 10 55 -4 15 -10 25 -12
25 -5 0 6 6 9 13 6 6 -2 23 0 37 5 13 5 21 6 17 2 -13 -14 16 -34 49 -34 24 0
34 5 34 15 0 8 -4 15 -10 15 -9 0 -21 38 -35 102 -3 18 -13 30 -29 34 -27 6
-63 41 -53 50 8 9 49 9 68 0 11 -5 19 -2 23 9 3 9 2 13 -4 10 -6 -3 -10 -4
-10 -2 0 3 16 15 36 27 27 15 34 24 26 32 -9 9 -18 8 -38 -1 -19 -8 -30 -9
-38 -1 -5 5 -6 10 0 10 5 0 3 4 -4 9 -10 6 -11 13 -1 34 7 15 9 30 6 34 -10 9
-58 -18 -51 -29 3 -4 -2 -8 -11 -8 -9 0 -13 5 -10 10 3 6 -4 10 -15 10 -13 0
-24 8 -27 19 -5 19 -43 37 -43 20 0 -5 -8 -9 -19 -9 -18 0 -152 125 -149 139
4 13 -33 70 -58 90 -59 46 -97 14 -75 -64 6 -21 8 -42 5 -47 -11 -18 -44 -6
-86 32 -23 22 -46 40 -50 40 -5 0 -8 7 -8 15 0 8 -6 15 -13 15 -8 0 -14 7 -14
15 0 9 6 14 12 11 18 -7 48 34 47 63 -1 14 -5 60 -10 101 -7 63 -6 77 7 88 8
7 22 9 31 6 8 -4 27 -9 42 -11 29 -5 41 -31 26 -58 -7 -11 -7 -20 0 -27 14
-14 118 -1 119 15 1 7 4 40 7 75 6 59 5 63 -19 74 -33 15 -32 24 3 22 15 -1
35 -3 45 -3 10 -1 15 -5 12 -11 -3 -5 -1 -10 5 -10 7 0 24 -13 40 -30 22 -23
25 -32 15 -40 -16 -14 -3 -70 20 -83 8 -4 15 -16 15 -26 0 -11 7 -22 16 -25
25 -9 27 -8 20 18 -8 33 14 48 77 51 28 1 67 6 86 10 25 6 32 5 27 -3 -4 -7
-2 -12 4 -12 6 0 8 -5 5 -10 -9 -14 40 -96 61 -104 10 -4 21 0 29 10 10 14 15
15 35 4 13 -7 35 -23 49 -36 14 -13 31 -24 37 -24 17 0 35 26 29 41 -3 9 3 14
20 15 14 1 25 -2 25 -7 0 -5 7 -9 16 -9 8 0 37 -7 65 -16 57 -19 76 -14 90 22
7 21 7 29 -3 36 -10 6 -10 10 2 18 15 10 31 9 78 -5 19 -6 22 -4 22 17 0 19
-10 29 -44 46 -24 12 -48 22 -54 22 -16 0 -42 41 -42 67 0 13 -12 31 -30 45
-29 21 -38 51 -22 74 4 6 26 23 50 38 23 14 42 31 42 36 0 5 -12 17 -26 27
-26 16 -27 16 -44 -5 -10 -12 -16 -31 -13 -42 6 -22 -7 -26 -24 -9 -7 7 -29
12 -50 13 -31 1 -39 5 -41 22 -4 28 21 47 66 48 35 1 38 3 52 51 23 73 42 67
79 -27 9 -24 16 -28 50 -28 43 0 60 -14 63 -54 1 -14 6 -26 11 -26 4 0 6 -4 3
-9 -3 -4 6 -6 20 -3 25 4 26 7 20 46 -4 22 -8 47 -8 54 -1 6 -5 12 -10 12 -4
0 -8 12 -8 28 0 15 -7 37 -15 49 -10 15 -11 23 -4 25 8 3 7 9 -4 19 -25 26
-380 53 -552 43z m-508 -223 c0 -11 -5 -17 -9 -15 -11 7 -10 34 1 34 6 0 9 -9
8 -19z m-85 -24 c11 -9 14 -18 7 -28 -5 -8 -9 -9 -9 -4 0 6 -4 4 -8 -3 -6 -9
-14 -7 -31 9 -18 17 -20 23 -9 30 18 12 30 11 50 -4z m112 -59 c31 -48 29 -82
-6 -92 -33 -9 -68 34 -68 84 0 36 8 47 36 49 6 1 23 -18 38 -41z m314 -27 c21
-13 10 -47 -13 -43 -56 8 -69 13 -54 23 12 7 12 9 -1 9 -13 0 -13 1 0 10 19
12 51 13 68 1z m-464 -27 c12 -32 6 -52 -18 -56 -31 -6 -56 8 -56 32 0 34 62
55 74 24z m429 -61 c-7 -2 -21 -2 -30 0 -10 3 -4 5 12 5 17 0 24 -2 18 -5z
m-10 -20 c-7 -2 -19 -2 -25 0 -7 3 -2 5 12 5 14 0 19 -2 13 -5z m277 -8 c10
-12 9 -15 -6 -15 -18 -1 -18 -1 -1 -14 16 -12 16 -14 2 -20 -9 -3 -13 -2 -10
4 6 9 -8 14 -27 11 -5 0 -8 4 -8 9 0 6 5 10 11 10 6 0 9 7 5 15 -3 9 0 15 8
15 7 0 19 -7 26 -15z m-912 -31 c-5 -25 -74 -62 -89 -47 -9 9 -5 18 14 37 30
30 81 36 75 10z m999 -47 c3 -4 1 -7 -6 -7 -7 0 -11 -6 -8 -14 4 -10 -2 -13
-18 -12 -17 1 -21 4 -13 13 8 9 4 15 -13 23 -21 8 -19 9 13 6 21 -1 41 -6 45
-9z m217 -12 c-10 -8 -23 -14 -29 -14 -5 0 -1 6 9 14 11 8 24 15 30 15 5 0 1
-7 -10 -15z m16 -16 c0 -6 8 -8 18 -5 10 4 7 -2 -8 -13 -27 -21 -47 -13 -37
13 7 18 27 22 27 5z m-1066 -20 c-3 -5 0 -9 7 -9 8 0 8 -4 -1 -15 -8 -9 -10
-29 -7 -51 4 -20 2 -45 -3 -55 -7 -11 -6 -27 0 -44 16 -41 -4 -63 -49 -55 -47
9 -78 25 -95 53 -17 25 -16 36 8 90 9 21 14 42 11 47 -3 5 14 10 37 12 24 2
43 8 43 13 0 21 16 33 35 28 11 -3 17 -9 14 -14z m169 -414 l38 -6 -22 -23
-23 -24 -33 22 c-18 11 -34 26 -37 32 -4 11 2 11 77 -1z m422 -13 c13 3 22 1
19 -3 -3 -5 -21 -9 -40 -9 -25 0 -34 4 -34 16 0 13 3 14 15 4 8 -7 26 -10 40
-8z m25 -30 c0 -4 -9 -13 -20 -20 -13 -7 -20 -8 -20 -2 0 6 -10 15 -22 20 -19
7 -16 9 20 9 23 1 42 -2 42 -7z m70 -26 c0 -11 -19 -15 -25 -6 -3 5 1 10 9 10
9 0 16 -2 16 -4z m-360 -54 c29 -27 30 -30 14 -43 -16 -12 -17 -12 -11 4 5 15
2 16 -20 11 -19 -5 -24 -4 -18 6 5 9 2 10 -13 6 -12 -4 -23 -2 -28 5 -5 8 -3
9 7 4 12 -7 12 -6 1 7 -10 13 -10 17 0 21 25 10 37 7 68 -21z m301 -89 c13
-16 12 -17 -3 -4 -10 7 -18 15 -18 17 0 8 8 3 21 -13z m-17 -12 c3 -5 0 -11
-7 -14 -8 -3 -14 1 -14 9 0 16 13 19 21 5z m-58 -10 c-4 -5 -3 -11 1 -14 5 -2
2 -2 -5 0 -9 2 -11 -3 -8 -15 4 -11 -2 -22 -14 -30 -17 -11 -21 -10 -27 5 -4
9 -1 19 5 21 7 2 10 8 6 13 -3 5 2 9 10 9 9 0 16 5 16 10 0 6 5 10 11 10 5 0
8 -4 5 -9z m-131 -11 c3 -5 2 -10 -4 -10 -5 0 -13 5 -16 10 -3 6 -2 10 4 10 5
0 13 -4 16 -10z"/>
<path d="M3219 5214 c28 -54 47 -102 44 -108 -4 -5 1 -7 10 -3 10 3 17 2 17
-2 0 -5 -5 -11 -12 -13 -14 -5 -1 -28 15 -27 8 0 7 2 -1 6 -10 4 -5 11 15 24
15 10 24 19 19 19 -5 0 -2 7 5 16 17 20 22 53 10 68 -12 15 -5 48 13 62 15 10
13 11 -162 51 -21 5 -19 -2 27 -93z"/>
<path d="M3390 5213 c4 -27 6 -61 5 -78 0 -16 3 -36 8 -42 6 -9 5 -13 -3 -13
-10 0 -10 -3 0 -15 7 -8 18 -15 24 -15 6 0 5 4 -3 9 -10 7 -8 14 10 36 34 38
57 49 75 35 12 -11 11 -16 -6 -40 -29 -41 -25 -50 23 -50 63 0 69 -8 71 -84 0
-36 -2 -66 -5 -66 -6 0 -18 -26 -33 -74 -6 -18 -8 -18 -23 -3 -9 9 -18 31 -20
48 -2 18 -9 37 -16 41 -8 5 -9 8 0 8 8 0 8 9 0 36 -11 35 -12 36 -54 31 -27
-3 -49 0 -56 7 -7 6 -29 25 -51 41 -35 27 -39 28 -51 12 -6 -9 -15 -14 -19
-10 -3 4 -1 -9 6 -28 13 -40 24 -49 59 -49 42 0 63 -23 64 -69 1 -24 8 -46 17
-54 9 -6 19 -30 23 -51 3 -21 13 -49 21 -61 8 -12 11 -25 7 -28 -3 -4 -1 -7 5
-7 7 0 12 -7 12 -16 0 -11 5 -14 17 -10 10 4 14 4 11 0 -4 -4 2 -18 12 -32 11
-13 20 -32 20 -40 0 -30 -43 -104 -66 -114 -24 -11 -35 -58 -14 -58 5 0 7 -7
4 -15 -6 -16 4 -19 30 -9 9 3 13 11 9 18 -3 6 0 5 8 -2 12 -11 12 -14 -1 -23
-12 -9 -12 -10 4 -5 10 4 25 1 32 -5 8 -6 21 -9 29 -5 10 4 14 2 9 -5 -3 -6
-17 -9 -30 -6 -31 6 -31 -1 1 -13 29 -11 33 -41 9 -61 -12 -10 -20 -10 -35 -1
-31 20 -59 15 -59 -10 0 -13 -4 -29 -9 -37 -11 -18 -71 -25 -71 -9 0 6 -2 9
-5 6 -3 -3 -3 -13 1 -22 5 -13 14 -16 33 -11 19 4 22 3 11 -4 -12 -8 -8 -13
20 -24 69 -29 97 -30 129 -6 18 13 38 20 50 16 11 -2 21 -1 23 3 2 5 11 2 22
-5 24 -18 14 -32 -34 -45 -45 -12 -51 -26 -17 -35 58 -16 114 -49 129 -76 13
-22 25 -29 50 -30 18 -1 38 0 43 1 31 8 48 9 37 4 -6 -3 -10 -10 -6 -15 3 -5
-9 -12 -26 -15 -17 -4 -35 -15 -40 -24 -10 -18 7 -24 86 -33 12 -1 30 -10 41
-19 12 -11 36 -18 64 -18 52 -1 119 9 119 19 0 22 -31 31 -102 31 -78 0 -95 9
-67 37 8 8 5 19 -11 41 -17 23 -20 34 -11 49 6 11 7 23 3 27 -3 4 2 4 12 0 14
-5 17 -4 12 4 -4 7 -1 12 9 12 8 0 25 5 38 12 54 28 59 30 52 19 -3 -6 5 -22
19 -34 14 -13 24 -26 21 -29 -2 -2 0 -21 6 -42 9 -32 13 -36 32 -30 12 4 24
10 27 14 3 4 15 13 28 19 14 8 21 18 18 27 -3 8 -1 14 5 14 20 0 38 27 32 49
-3 11 -9 21 -12 21 -4 0 -8 7 -8 15 0 8 7 15 15 15 10 0 12 6 7 18 -4 9 -7 34
-6 55 1 24 -3 37 -11 37 -10 0 -10 2 1 9 19 12 0 44 -44 70 -19 11 -35 24 -35
29 0 4 9 26 20 49 15 31 27 42 51 47 39 7 46 3 54 -34 4 -17 10 -30 15 -30 23
0 41 -34 35 -68 -4 -24 -1 -40 10 -52 20 -22 12 -56 -21 -95 -27 -32 -30 -39
-11 -32 8 3 14 -1 14 -9 0 -7 -4 -11 -9 -8 -4 3 -8 -2 -8 -11 0 -13 4 -14 23
-5 22 11 22 11 -2 -9 -14 -13 -18 -21 -10 -21 11 0 11 -2 -1 -10 -12 -8 -11
-10 7 -10 19 0 22 -6 25 -47 l3 -48 27 55 c27 54 68 89 106 91 14 0 13 2 -3 9
l-20 9 20 0 c15 1 17 3 6 10 -7 5 -23 6 -35 3 -19 -5 -19 -4 -7 11 8 11 11 27
6 44 -6 27 -6 27 9 8 13 -16 15 -17 10 -2 -4 11 -1 17 7 17 11 0 11 3 -1 10
-12 8 -11 10 7 10 13 0 30 11 39 25 36 56 -29 103 -74 55 -21 -22 -52 -18 -52
7 0 8 -5 11 -12 7 -6 -4 -9 -3 -7 2 3 5 11 23 19 39 8 17 21 36 28 43 6 7 12
20 12 28 0 8 5 14 11 14 5 0 7 4 4 10 -11 19 25 -2 58 -33 100 -94 194 -147
211 -119 9 15 -6 52 -20 52 -8 0 -14 5 -14 10 0 6 -8 10 -17 10 -15 0 -16 2
-3 10 12 8 12 10 -5 11 -20 0 -20 1 0 8 17 7 17 8 -8 15 -15 3 -25 11 -22 16
3 6 1 10 -5 10 -7 0 -9 8 -5 21 6 18 -7 36 -76 101 -256 242 -531 423 -843
552 -100 42 -288 106 -311 106 -1 0 1 -21 5 -47z m254 -582 c4 -5 3 -16 0 -25
-5 -13 -9 -14 -20 -5 -8 6 -14 18 -14 25 0 16 26 19 34 5z m685 -22 c29 -31
30 -51 5 -91 -18 -28 -28 -35 -44 -31 -11 3 -20 12 -20 19 0 8 -7 14 -15 14
-10 0 -14 7 -11 23 3 12 5 28 5 35 1 15 37 52 51 52 5 0 18 -9 29 -21z m-767
-132 c-24 -11 -31 -30 -8 -21 8 3 16 1 20 -4 7 -12 -26 -12 -41 1 -15 11 -18
31 -4 23 5 -3 14 1 21 9 7 8 17 12 23 8 6 -4 2 -10 -11 -16z m71 9 c4 -9 -2
-17 -14 -21 -10 -4 -17 -11 -14 -16 4 -5 2 -9 -3 -9 -5 0 -9 14 -10 30 0 23 4
30 18 30 10 0 20 -7 23 -14z m-123 -41 c7 -9 8 -15 2 -15 -5 0 -12 7 -16 15
-3 8 -4 15 -2 15 2 0 9 -7 16 -15z m149 1 c-2 -2 -15 -9 -29 -15 -24 -11 -24
-11 -6 3 16 13 49 24 35 12z m139 -56 c22 -22 42 -47 45 -55 3 -7 14 -14 24
-15 54 -2 73 -6 73 -13 0 -5 5 -5 12 -1 7 4 8 3 4 -4 -4 -7 5 -23 19 -38 16
-16 25 -35 23 -48 -3 -19 -9 -21 -55 -19 -52 2 -53 2 -53 -26 0 -36 -21 -54
-54 -45 -26 6 -38 -10 -13 -19 9 -4 9 -6 -1 -6 -7 -1 -17 11 -22 25 -9 22 -13
24 -25 14 -10 -8 -15 -9 -15 -2 0 6 5 14 10 17 6 4 1 18 -14 35 -23 29 -43
100 -32 118 3 5 -1 18 -9 28 -17 23 -19 48 -5 75 16 29 44 23 88 -21z m-228
-10 c0 -5 -2 -10 -4 -10 -3 0 -8 5 -11 10 -3 6 -1 10 4 10 6 0 11 -4 11 -10z
m74 -71 c-3 -6 -1 -15 6 -19 20 -13 3 -40 -25 -40 -28 0 -45 27 -25 40 7 4 9
13 6 19 -5 7 2 11 19 11 17 0 24 -4 19 -11z m-114 -64 c0 -8 8 -15 18 -15 15
-1 15 -2 -2 -11 -15 -9 -16 -13 -5 -21 11 -8 11 -9 -1 -5 -8 2 -14 10 -12 16
1 6 -8 11 -20 12 -13 0 -17 3 -10 6 6 2 12 11 12 19 0 8 5 14 10 14 6 0 10 -7
10 -15z m120 -35 c11 -8 7 -9 -15 -4 -37 8 -45 14 -19 14 10 0 26 -5 34 -10z
m780 -10 c0 -5 -4 -10 -10 -10 -5 0 -10 5 -10 10 0 6 5 10 10 10 6 0 10 -4 10
-10z m-266 -51 c-4 -8 1 -9 17 -4 27 8 24 3 -8 -14 -18 -9 -21 -8 -18 7 5 23
4 22 11 22 3 0 2 -5 -2 -11z m11 -62 c13 -4 9 -5 -10 -4 -19 1 -29 -3 -28 -10
2 -7 -7 -17 -20 -23 -21 -11 -21 -10 -3 4 11 9 14 16 8 16 -7 0 -5 7 6 18 9
10 19 15 22 11 3 -4 14 -9 25 -12z m-275 -2 c0 -8 -6 -12 -14 -9 -10 4 -16 -3
-18 -21 -2 -14 -7 -26 -13 -26 -18 -1 -16 17 5 44 24 30 40 35 40 12z"/>
<path d="M3042 5036 c1 -10 8 -17 13 -17 15 1 12 24 -3 29 -9 3 -13 -2 -10
-12z"/>
<path d="M3070 4982 c0 -16 9 -37 20 -47 11 -10 20 -23 20 -29 0 -10 34 -46
44 -46 2 0 4 12 4 27 0 17 -11 35 -29 50 -15 13 -29 33 -31 45 -5 34 -28 34
-28 0z"/>
<path d="M2160 4990 c0 -5 5 -10 11 -10 5 0 7 5 4 10 -3 6 -8 10 -11 10 -2 0
-4 -4 -4 -10z"/>
<path d="M1272 4957 c-14 -17 -4 -29 34 -43 24 -9 31 -8 31 2 0 6 -6 10 -13 7
-6 -2 -15 0 -19 6 -3 6 1 11 10 11 15 0 15 2 1 15 -18 18 -30 19 -44 2z"/>
<path d="M1325 4881 c-3 -5 -2 -12 3 -15 5 -3 9 1 9 9 0 17 -3 19 -12 6z"/>
<path d="M1080 4824 c-30 -25 -73 -57 -95 -71 l-40 -26 45 -11 c40 -10 45 -14
46 -41 1 -16 2 -35 3 -42 0 -6 15 -16 33 -22 26 -9 35 -8 51 6 25 23 19 88
-13 130 -18 25 -20 34 -11 52 7 11 17 21 23 21 6 0 9 3 5 6 -10 10 17 32 33
27 13 -4 13 -4 0 6 -20 14 -18 16 -80 -35z"/>
<path d="M1283 4794 c-15 -39 53 -82 83 -53 13 14 12 18 -12 42 -30 30 -62 35
-71 11z"/>
<path d="M2202 4774 c1 -9 9 -19 16 -22 9 -3 13 2 10 14 -1 9 -9 19 -16 22 -9
3 -13 -2 -10 -14z"/>
<path d="M3245 4763 c1 -14 10 -32 18 -41 13 -13 19 -13 32 -2 14 12 14 15 -5
35 -16 17 -18 24 -8 27 7 3 1 5 -13 5 -23 0 -27 -3 -24 -24z"/>
<path d="M3124 4701 c0 -9 6 -22 13 -28 6 -7 13 -17 15 -22 1 -5 12 -11 23
-13 16 -2 21 3 23 26 4 35 -5 45 -45 49 -23 3 -30 0 -29 -12z"/>
<path d="M1985 4700 c-10 -16 14 -40 40 -40 31 0 38 11 18 32 -18 20 -48 24
-58 8z"/>
<path d="M2591 4643 c-6 -16 -11 -37 -10 -48 0 -11 -3 -41 -7 -67 -6 -41 -4
-48 10 -48 13 0 16 8 13 35 -2 19 -1 36 2 37 11 5 41 78 41 98 0 31 -36 25
-49 -7z"/>
<path d="M3025 4659 c-4 -6 -1 -15 6 -20 21 -13 31 -11 27 8 -4 20 -24 28 -33
12z"/>
<path d="M1176 4644 c-10 -26 -7 -32 30 -74 24 -26 45 -40 61 -40 25 0 25 1 9
25 -9 13 -16 38 -16 54 0 20 -7 34 -19 41 -29 15 -58 12 -65 -6z"/>
<path d="M2357 4653 c-4 -3 -7 -15 -7 -25 0 -10 -7 -18 -15 -18 -17 0 -20 -25
-5 -35 6 -3 10 -15 10 -26 0 -10 6 -19 13 -19 8 0 7 -3 -3 -10 -13 -8 -12 -11
5 -24 25 -19 88 -22 83 -3 -3 6 -14 17 -25 22 -19 10 -19 13 -7 60 11 43 10
52 -3 68 -17 18 -35 22 -46 10z"/>
<path d="M3272 4638 c-18 -18 -14 -28 8 -28 11 0 20 6 20 14 0 21 -15 27 -28
14z"/>
<path d="M2780 4615 c-15 -19 3 -45 31 -45 19 0 35 33 24 50 -9 15 -41 12 -55
-5z"/>
<path d="M1512 4598 c-21 -21 -15 -68 11 -77 19 -7 24 -4 36 25 10 27 11 37 1
49 -15 18 -32 19 -48 3z"/>
<path d="M1370 4592 c0 -12 49 -37 56 -29 11 10 -17 37 -37 37 -11 0 -19 -4
-19 -8z"/>
<path d="M2900 4590 c0 -21 63 -81 83 -78 35 5 30 26 -14 57 -42 31 -69 39
-69 21z"/>
<path d="M3290 4561 c0 -32 6 -37 27 -23 17 11 9 46 -10 50 -13 3 -17 -4 -17
-27z"/>
<path d="M2712 4561 c2 -7 7 -12 11 -12 12 1 9 15 -3 20 -7 2 -11 -2 -8 -8z"/>
<path d="M1000 4550 c0 -5 4 -10 9 -10 6 0 13 5 16 10 3 6 -1 10 -9 10 -9 0
-16 -4 -16 -10z"/>
<path d="M2490 4540 c0 -5 7 -10 15 -10 8 0 15 5 15 10 0 6 -7 10 -15 10 -8 0
-15 -4 -15 -10z"/>
<path d="M3117 4535 c-6 -14 44 -65 63 -65 18 0 31 39 20 60 -13 24 -75 28
-83 5z"/>
<path d="M860 4525 c0 -19 43 -40 65 -31 13 4 14 10 5 26 -13 25 -70 29 -70 5z"/>
<path d="M1149 4508 c9 -25 31 -36 31 -16 0 15 -19 38 -32 38 -4 0 -4 -10 1
-22z"/>
<path d="M3300 4490 c-10 -24 -10 -34 -1 -43 18 -18 46 5 46 39 0 41 -29 43
-45 4z"/>
<path d="M1340 4491 c0 -16 12 -27 44 -41 34 -16 45 -26 49 -50 7 -32 33 -41
43 -15 17 43 -38 103 -108 120 -24 6 -28 4 -28 -14z"/>
<path d="M2840 4475 c-11 -13 -10 -19 9 -38 11 -13 21 -28 21 -35 0 -27 -35
-81 -55 -86 -28 -7 -40 -35 -20 -43 28 -10 71 16 83 51 7 18 23 38 37 44 30
14 30 25 2 77 -24 44 -55 56 -77 30z"/>
<path d="M2610 4446 c0 -9 11 -28 25 -42 14 -14 25 -36 25 -49 0 -13 5 -36 10
-51 8 -21 8 -30 -2 -37 -9 -6 -8 -7 5 -3 10 3 22 6 26 6 16 0 34 77 23 96 -9
16 -5 21 20 31 39 17 33 22 -39 38 -32 7 -66 16 -75 20 -13 5 -18 2 -18 -9z"/>
<path d="M660 4420 c0 -5 9 -19 19 -29 13 -13 16 -21 8 -24 -7 -3 0 -4 14 -3
21 1 25 5 21 21 -3 11 -9 26 -15 33 -11 14 -47 16 -47 2z"/>
<path d="M3357 4368 c-18 -15 -30 -65 -17 -73 5 -3 11 -1 15 5 3 5 19 10 36
10 19 0 29 5 30 15 1 8 2 21 3 28 3 26 -39 36 -67 15z"/>
<path d="M3227 4353 c-11 -10 -8 -20 8 -27 10 -4 15 1 15 14 0 20 -11 26 -23
13z"/>
<path d="M586 4335 c-3 -8 -1 -15 5 -15 6 0 8 -4 4 -9 -3 -5 5 -17 17 -25 15
-11 18 -16 8 -16 -13 0 -13 -2 0 -10 9 -6 10 -10 3 -10 -6 0 -13 -10 -15 -22
-2 -18 -11 -24 -35 -26 -18 -2 -42 2 -53 8 -19 10 -24 8 -38 -11 -33 -45 -172
-271 -172 -279 0 -5 6 -10 13 -13 9 -3 9 -7 -2 -20 -20 -26 -7 -20 24 9 30 28
90 58 115 57 8 0 29 -6 45 -13 17 -7 51 -14 78 -15 67 -3 65 -3 77 -26 22 -40
-25 -65 -62 -32 -17 15 -21 15 -54 0 -19 -10 -40 -14 -46 -11 -6 4 -39 6 -74
5 -46 -1 -64 2 -64 11 0 10 -2 10 -8 1 -4 -6 -23 -13 -42 -15 -33 -3 -36 -6
-76 -98 -158 -362 -227 -694 -225 -1090 1 -223 13 -345 36 -362 6 -5 5 -8 -3
-8 -7 0 -10 -4 -7 -10 9 -15 42 -12 60 6 12 12 26 15 55 10 33 -5 41 -3 50 14
6 11 8 25 5 30 -3 6 -1 10 5 10 6 0 9 4 5 9 -10 17 55 21 160 13 55 -5 110 -8
123 -7 38 4 25 -11 -40 -42 -45 -22 -68 -28 -80 -22 -24 13 -99 10 -123 -4
-12 -7 -20 -19 -20 -27 1 -19 -21 -35 -60 -44 -16 -4 -33 -13 -37 -19 -4 -6
-26 -10 -49 -9 l-42 3 6 -52 c4 -29 10 -56 14 -60 5 -4 32 -9 61 -11 66 -4 87
-22 46 -39 -16 -7 -43 -12 -60 -12 l-30 -1 21 -81 c30 -109 33 -115 64 -116
26 0 26 0 3 -11 -16 -8 -21 -17 -16 -32 11 -40 56 -151 91 -225 30 -66 36 -73
58 -69 13 3 22 1 19 -3 -3 -5 -12 -9 -20 -9 -8 0 -14 -5 -14 -11 0 -5 4 -8 9
-5 5 4 7 -2 4 -12 -2 -10 6 -33 19 -52 13 -19 50 -80 83 -135 32 -55 62 -102
65 -105 3 -3 19 -22 35 -44 l29 -38 65 6 c35 3 68 11 72 17 5 8 8 7 12 -2 3
-9 6 -5 6 7 1 22 18 34 47 34 10 0 12 -5 8 -12 -6 -10 -4 -10 7 -2 8 6 28 15
44 19 36 10 165 13 165 4 0 -6 -24 -16 -55 -24 -5 -1 -14 -3 -20 -5 -26 -6
-71 -4 -83 4 -9 6 -12 5 -10 -4 2 -7 -3 -15 -11 -18 -8 -2 -11 0 -8 5 4 5 -7
7 -25 5 -21 -3 -29 -1 -24 7 4 6 2 11 -3 11 -6 0 -11 -3 -12 -7 0 -5 -2 -18
-3 -31 -2 -17 2 -22 22 -22 14 0 22 -5 19 -12 -3 -9 -31 -13 -95 -13 l-91 0
21 -35 c21 -35 133 -156 238 -258 112 -109 354 -303 422 -338 18 -9 44 -25 58
-34 103 -69 347 -184 509 -239 156 -53 366 -105 502 -124 33 -5 38 -2 52 26 9
18 26 43 36 57 13 16 24 54 31 107 17 125 101 314 172 385 14 14 21 15 48 5
28 -11 33 -10 46 7 19 26 1 46 -41 46 -36 0 -61 22 -49 42 11 17 57 55 123
102 31 21 74 58 96 82 50 53 85 64 116 36 11 -11 56 -33 99 -48 43 -15 101
-44 127 -64 27 -20 63 -42 81 -48 43 -15 151 -79 252 -151 47 -33 117 -83 157
-111 40 -27 76 -56 80 -63 4 -6 26 -25 48 -42 22 -16 42 -33 43 -37 2 -4 8 -8
13 -8 6 0 21 -11 36 -24 l26 -24 46 22 c71 33 132 76 126 86 -3 6 -21 10 -40
10 -20 0 -41 8 -52 19 -23 23 -63 43 -133 66 -50 16 -107 48 -120 67 -3 4 -15
9 -25 11 -11 1 -27 7 -35 12 -38 25 -59 36 -109 60 -29 14 -78 43 -110 64
-101 68 -274 149 -466 217 -82 29 -153 33 -171 10 -6 -9 -14 -16 -18 -16 -13
0 -36 69 -36 108 0 81 -47 167 -59 106 -1 -10 -10 -27 -19 -37 -13 -14 -14
-22 -5 -37 11 -16 8 -19 -23 -25 -64 -12 -204 13 -204 36 0 5 -16 9 -36 9 -19
0 -33 -4 -30 -8 2 -4 -24 -8 -59 -9 -36 0 -62 4 -59 8 3 5 1 9 -5 9 -6 0 -8 6
-5 13 5 14 -18 19 -98 20 -20 1 -35 4 -32 8 2 4 -3 12 -10 18 -10 8 -16 9 -21
1 -3 -5 -2 -10 4 -10 5 0 9 -9 8 -20 -1 -14 -8 -20 -27 -20 l-25 1 22 12 c23
13 23 13 3 30 -35 30 -67 32 -81 5 -7 -12 -14 -26 -15 -30 -1 -5 -2 -9 -4 -10
-1 -2 -3 -11 -5 -21 -2 -13 1 -16 13 -13 9 3 42 6 73 7 42 2 61 -2 74 -14 9
-9 22 -17 28 -17 7 0 6 4 -3 10 -9 6 -10 10 -3 10 6 0 14 -4 17 -9 3 -4 36 -7
73 -5 l68 3 -74 -14 c-70 -13 -290 -28 -264 -18 8 3 3 13 -14 29 -26 24 -43
31 -43 17 0 -9 -87 -9 -96 -1 -3 3 17 16 45 29 28 12 48 26 44 32 -3 5 4 4 16
-2 17 -9 21 -9 19 1 -2 7 3 12 10 10 8 -1 11 2 7 8 -4 6 -16 8 -28 6 -13 -4
-9 0 8 9 17 8 26 14 21 15 -5 0 3 9 18 21 14 11 26 27 26 35 0 23 36 52 82 65
24 7 46 12 51 11 4 -1 7 2 7 8 0 5 17 10 38 10 20 0 50 7 67 16 18 9 55 15 95
15 143 -1 185 8 187 37 1 9 11 39 22 66 12 27 19 51 17 53 -9 9 -27 -9 -22
-22 4 -12 -3 -16 -69 -32 -11 -2 -41 -7 -67 -10 -61 -7 -75 15 -32 52 16 14
33 25 37 25 5 0 6 4 2 9 -8 13 69 88 85 83 8 -3 10 0 5 8 -6 10 -4 12 8 7 10
-3 17 -2 17 3 0 6 26 22 58 36 57 26 85 27 164 8 23 -5 40 6 135 93 169 154
194 173 421 330 113 78 220 141 322 189 93 44 224 102 243 108 13 4 17 17 17
53 1 26 7 59 15 73 8 14 14 35 15 48 0 15 6 22 19 22 12 0 23 12 31 33 6 17
16 39 21 47 21 34 49 103 49 121 0 10 5 19 10 19 10 0 50 58 50 73 0 4 -6 7
-14 7 -8 0 -17 4 -20 9 -3 4 6 6 19 3 18 -3 27 1 31 14 3 11 19 46 34 79 47
106 55 157 35 231 -18 65 -75 168 -82 147 -2 -6 5 -30 16 -52 25 -48 26 -52 6
-45 -8 4 -15 2 -15 -4 0 -6 -3 -17 -6 -25 -3 -8 3 -22 12 -32 17 -17 35 -138
18 -122 -4 4 -13 -5 -20 -20 l-12 -28 -1 32 c-1 41 -10 63 -26 63 -6 0 -30 13
-51 28 -37 27 -72 33 -57 9 4 -7 0 -8 -11 -4 -10 4 -20 7 -22 7 -2 0 -4 5 -4
11 0 6 7 9 15 6 8 -4 17 -1 21 5 5 8 -2 9 -24 5 -17 -3 -32 -3 -34 1 -2 5 -23
22 -48 40 -112 78 -144 128 -142 223 1 41 -3 61 -14 70 -13 10 -17 10 -25 -2
-11 -16 -2 -124 12 -151 5 -9 9 -22 9 -29 0 -27 -28 16 -44 68 -10 28 -24 57
-32 63 -7 7 -14 20 -14 30 0 10 -6 23 -14 29 -20 17 -28 51 -10 44 19 -7 18
24 -2 44 -14 14 -17 13 -39 -7 l-25 -23 22 -39 c12 -21 27 -38 32 -38 17 0 38
-38 25 -46 -11 -6 -30 14 -54 58 -8 15 -24 33 -34 41 -14 9 -19 23 -17 43 1
16 -4 37 -12 47 -16 18 -72 24 -72 7 0 -5 -13 -10 -29 -10 -37 0 -47 -24 -20
-51 21 -21 22 -60 2 -66 -7 -3 -15 7 -19 21 -3 15 -17 35 -31 46 -19 15 -26
31 -30 75 -6 54 -7 57 -32 53 -24 -3 -26 -1 -25 28 2 42 10 54 36 54 16 0 19
4 13 23 -3 12 -6 29 -7 37 0 20 -19 60 -30 60 -16 0 -56 -43 -62 -65 -3 -13
-14 -26 -24 -29 -21 -7 -66 -63 -76 -94 -9 -29 14 -30 39 -2 26 29 49 26 41
-5 -6 -23 -4 -25 19 -19 30 7 32 0 5 -28 -18 -20 -25 -39 -21 -62 1 -5 -5 -6
-14 -3 -8 4 -15 2 -15 -3 0 -6 4 -10 10 -10 5 0 7 -7 3 -16 -4 -12 -11 -8 -34
18 -16 18 -31 41 -34 51 -5 12 -13 16 -25 12 -18 -6 -18 -3 -9 27 6 18 17 45
25 61 8 15 13 27 10 27 -18 0 -117 -44 -136 -60 -13 -11 -42 -21 -73 -23 -72
-7 -147 -5 -147 3 0 7 95 32 138 36 49 6 157 48 180 71 13 13 28 21 33 17 15
-9 59 4 59 18 0 7 -16 9 -49 5 -45 -5 -50 -4 -48 14 1 16 6 19 32 13 46 -9 20
10 -55 41 -36 15 -67 29 -70 32 -14 16 109 -11 151 -33 27 -13 51 -24 55 -24
14 0 -32 43 -71 66 -47 27 -177 45 -189 25 -4 -6 0 -14 8 -17 11 -4 13 -11 7
-21 -9 -17 -4 -51 12 -71 5 -7 7 -15 5 -18 -8 -7 -48 46 -48 63 0 11 -37 33
-56 33 -12 0 -1 -46 21 -90 14 -28 21 -50 15 -50 -5 0 -10 6 -10 13 0 8 -20
32 -45 55 -25 22 -45 45 -45 51 0 11 -15 16 -72 26 -50 8 -49 -8 2 -36 40 -23
51 -39 27 -39 -7 0 -21 6 -32 14 -11 7 -44 16 -73 20 -44 6 -53 4 -59 -10 -4
-10 2 -22 15 -33 29 -22 39 -66 17 -75 -20 -7 -55 10 -55 28 0 8 -12 16 -27
20 -24 5 -35 -2 -82 -51 -45 -47 -55 -54 -65 -42 -13 18 -46 13 -46 -7 0 -8
-7 -14 -15 -14 -23 0 0 -38 31 -52 34 -16 30 -31 -6 -26 -21 3 -27 1 -20 -6
18 -18 11 -21 -67 -21 -73 0 -77 1 -93 27 -19 32 -30 27 -30 -14 0 -15 -4 -28
-10 -28 -13 0 -52 -91 -45 -108 3 -8 -4 -27 -15 -42 -18 -26 -19 -36 -11 -109
5 -46 18 -98 29 -120 12 -22 18 -41 14 -43 -14 -6 -41 -77 -36 -95 3 -11 -2
-25 -10 -32 -9 -8 -16 -20 -16 -28 0 -12 -3 -13 -13 -4 -8 6 -17 8 -20 4 -14
-13 -7 -23 16 -23 12 0 31 -9 40 -21 10 -11 23 -19 30 -16 13 4 35 107 38 177
1 57 19 110 36 110 7 0 22 -5 33 -12 16 -11 26 -8 67 21 26 18 52 34 57 35 6
1 16 5 22 8 6 4 21 -4 32 -17 24 -27 69 -33 91 -12 9 7 11 7 8 1 -7 -12 12
-24 47 -31 14 -2 16 0 8 9 -7 9 -6 18 3 32 21 29 36 11 21 -27 -16 -42 -13
-150 6 -179 21 -32 108 -121 136 -139 19 -12 21 -19 13 -44 l-8 -30 -11 26
c-8 21 -16 26 -35 22 -14 -3 -30 -16 -36 -30 -9 -20 -8 -29 9 -50 16 -21 18
-28 8 -35 -10 -6 -10 -8 -1 -8 7 0 17 -10 24 -21 9 -17 8 -20 -2 -14 -9 6 -11
3 -6 -8 4 -10 -1 -18 -13 -22 -10 -3 -24 -13 -31 -22 -12 -14 -9 -15 31 -8 24
4 52 12 61 18 38 24 106 -21 130 -85 7 -21 17 -38 22 -38 5 0 2 -7 -7 -15 -8
-8 -13 -25 -10 -38 3 -19 -3 -25 -34 -36 -34 -13 -75 -45 -78 -63 -1 -5 -2
-12 -3 -17 0 -4 -14 -21 -29 -38 -23 -23 -28 -38 -28 -74 1 -42 2 -44 29 -41
24 2 27 0 27 -30 0 -18 3 -43 6 -55 5 -17 2 -23 -9 -23 -24 0 -31 -19 -10 -27
18 -7 43 -28 43 -36 0 -2 -11 -2 -25 1 -31 5 -82 -18 -115 -53 l-25 -27 24
-19 c13 -11 21 -25 17 -34 -7 -20 3 -45 19 -45 10 0 14 -16 14 -53 0 -78 -27
-108 -99 -112 -42 -2 -58 -7 -73 -26 l-19 -24 26 -3 c14 -2 24 -8 21 -13 -3
-5 1 -6 9 -3 8 3 25 -1 38 -10 21 -15 21 -16 3 -15 -37 4 -160 -3 -143 -8 18
-4 21 -44 3 -41 -5 1 -20 -4 -33 -11 -13 -7 -30 -10 -38 -7 -8 3 -13 2 -10 -3
3 -5 -1 -12 -9 -15 -14 -5 -13 -10 6 -35 19 -26 20 -33 9 -46 -32 -38 -73 -36
-152 6 -20 10 -71 -8 -62 -23 3 -5 2 -8 -3 -7 -26 4 -63 -2 -58 -11 3 -6 -1
-7 -9 -4 -9 3 -16 2 -16 -4 0 -6 -10 -8 -22 -5 -16 3 -19 2 -10 -4 9 -7 2 -10
-20 -11 -49 -1 -113 -9 -135 -16 -17 -5 -20 -2 -18 17 3 23 2 23 -43 12 -43
-11 -132 -1 -117 13 2 3 0 11 -6 18 -8 10 -33 12 -100 7 -78 -4 -93 -3 -110
13 -20 18 -20 18 3 31 13 7 37 12 54 13 17 0 37 7 44 15 7 8 19 15 26 15 15 0
19 15 7 23 -5 2 -1 2 7 0 17 -5 100 18 100 28 0 10 65 2 88 -10 12 -6 30 -11
40 -11 16 0 20 6 17 26 -2 25 -22 47 -35 39 -4 -2 -18 -6 -33 -9 -20 -3 -24
-1 -20 11 8 20 -16 34 -38 22 -10 -5 -24 -9 -31 -8 -7 0 -4 4 7 8 12 5 -13 8
-63 9 -46 0 -82 -3 -82 -9 0 -5 -3 -8 -7 -8 -20 3 -44 -2 -40 -8 3 -5 -5 -8
-18 -8 -13 0 -21 3 -19 7 3 4 -9 6 -25 4 -23 -2 -31 1 -31 12 0 19 -29 41 -55
42 -15 0 -16 3 -7 9 8 5 0 7 -23 6 -36 -2 -105 -33 -105 -47 0 -5 -9 -17 -20
-28 -17 -17 -24 -18 -41 -10 -15 8 -24 8 -34 0 -14 -11 -55 -5 -55 8 0 4 14
15 30 24 18 10 30 25 30 37 0 29 -39 61 -73 61 -29 0 -29 1 -14 18 18 20 22
42 9 42 -5 0 -9 6 -9 14 0 9 15 17 36 21 20 4 42 11 49 17 7 7 28 8 55 3 69
-13 246 -11 272 4 5 3 24 4 42 2 18 -1 33 2 33 8 0 6 7 7 17 4 12 -5 14 -3 9
8 -4 8 -1 6 7 -3 8 -10 20 -18 26 -18 7 0 9 -5 5 -12 -4 -7 -3 -10 1 -5 16 14
15 47 0 53 -8 4 -15 13 -15 21 0 13 3 13 15 3 9 -7 15 -8 15 -2 0 5 -6 12 -14
15 -17 7 -39 -16 -28 -29 4 -5 -2 -1 -14 9 -11 9 -27 17 -35 17 -12 0 -11 2 1
10 13 8 12 10 -2 10 -10 0 -18 -4 -18 -8 0 -5 -15 -6 -32 -3 l-33 5 34 6 c21
3 35 11 36 21 2 12 -4 15 -24 11 -14 -3 -31 -9 -37 -13 -7 -6 -25 -3 -45 6
-19 8 -28 14 -20 15 11 0 11 3 1 15 -10 12 -7 15 15 21 15 4 31 2 38 -5 6 -6
18 -11 27 -11 13 0 13 1 0 10 -12 8 -11 10 7 10 12 0 24 4 27 9 7 11 65 7 99
-7 34 -14 94 -26 84 -16 -4 4 1 13 11 21 16 14 16 14 -1 9 -15 -5 -16 -2 -7
14 8 15 21 20 50 20 22 0 40 5 40 11 0 13 -215 8 -244 -5 -15 -7 -17 -6 -11 3
6 10 2 11 -16 7 -23 -7 -23 -6 -4 6 11 7 27 13 35 15 8 1 20 9 26 18 7 9 18
13 28 9 9 -3 16 -2 16 3 0 16 132 24 191 12 107 -21 119 -22 119 -5 0 9 -8 16
-19 16 -21 0 -36 26 -20 35 5 4 19 3 32 -1 44 -15 58 -12 51 10 -25 76 -24 77
48 187 114 172 152 263 118 284 -5 3 -10 21 -10 39 0 33 -17 94 -30 109 -4 4
-20 5 -35 1 -25 -6 -26 -8 -12 -19 24 -17 44 -78 29 -83 -21 -7 -13 -30 8 -25
11 3 20 0 20 -6 0 -6 -11 -11 -25 -11 -14 0 -25 5 -25 11 0 6 -8 18 -17 27
-13 13 -36 17 -100 18 -46 0 -83 -3 -83 -7 0 -4 -20 -5 -44 -4 -34 3 -49 -1
-62 -16 -16 -18 -15 -19 10 -29 15 -5 34 -10 42 -10 9 0 24 -5 34 -10 15 -8
23 -6 37 9 10 10 28 22 40 25 17 5 21 3 19 -11 -5 -32 43 -59 59 -33 3 6 12
10 18 10 7 0 6 -4 -3 -10 -11 -7 -6 -10 22 -10 76 0 87 -21 34 -66 -19 -17
-32 -37 -30 -47 4 -28 -40 -50 -86 -44 -22 3 -42 1 -45 -4 -4 -5 -13 -5 -23 1
-9 5 -29 11 -43 14 -26 6 -46 41 -29 51 4 3 6 14 3 25 -5 18 -14 20 -75 20
-80 0 -158 17 -155 34 1 8 -34 12 -117 13 -86 1 -123 6 -135 16 -10 10 -23 12
-36 7 -14 -6 -15 -9 -5 -10 8 -1 2 -6 -14 -10 -16 -5 -34 -6 -39 -3 -6 3 -7 1
-3 -5 4 -7 2 -12 -3 -12 -26 0 -8 -31 25 -45 42 -17 74 -20 74 -5 0 5 7 7 15
4 8 -4 15 -12 15 -20 0 -8 5 -14 10 -14 6 0 10 -7 10 -15 0 -8 4 -15 10 -15 6
0 6 -9 0 -25 -12 -32 -13 -32 120 -39 58 -4 113 -8 122 -9 24 -4 35 -17 15
-17 -16 0 -35 -33 -51 -82 -8 -27 -45 -22 -58 7 -6 14 -16 25 -22 25 -6 0 -32
11 -58 24 -38 18 -45 25 -35 36 10 10 8 10 -8 2 -18 -9 -44 -10 -103 -3 -7 0
-10 6 -6 13 5 7 3 8 -6 3 -7 -4 -16 -2 -21 6 -6 11 -40 14 -150 14 -158 0
-172 -6 -115 -50 35 -27 36 -27 63 -10 29 19 113 30 113 16 0 -5 10 -8 23 -7
16 2 23 -3 24 -16 1 -10 -5 -18 -13 -18 -9 0 -12 5 -8 12 5 8 2 9 -12 3 -10
-5 -47 -9 -82 -10 -38 -1 -67 -6 -71 -14 -8 -13 -41 -5 -41 11 0 6 -7 7 -16 4
-9 -4 -22 -1 -30 5 -7 6 -47 12 -90 15 -42 2 -79 5 -81 7 -2 2 -1 12 3 21 4
11 18 16 46 16 58 0 80 14 68 45 -11 30 -3 36 53 36 43 0 97 16 97 28 0 4 -6
13 -12 20 -11 10 -10 11 5 6 16 -7 23 11 18 51 -3 27 33 39 123 40 50 1 96 3
101 4 6 1 13 2 18 1 9 -1 9 16 0 22 -5 2 -2 2 6 0 7 -2 19 1 26 7 7 6 17 10
21 9 23 -4 64 2 64 9 0 5 -10 14 -22 20 -22 10 -22 11 -3 12 l20 1 -20 8 c-19
8 -19 8 5 16 14 4 27 10 30 14 3 3 23 14 45 24 25 11 33 12 22 3 -15 -11 -15
-15 -3 -19 8 -3 16 -2 18 2 2 4 14 4 28 0 l25 -7 -25 -1 c-15 -1 -32 -7 -39
-13 -9 -8 -11 -8 -8 -2 4 7 0 15 -9 18 -21 8 -21 8 -28 -10 -5 -12 -2 -15 11
-10 17 6 17 5 1 -8 -24 -18 -23 -26 3 -26 11 0 18 4 15 8 -3 5 22 17 54 26 37
11 57 22 53 29 -4 6 0 8 9 4 9 -3 24 3 34 14 20 22 16 23 -23 7 -36 -15 -85
-17 -79 -3 2 7 -16 10 -56 9 -33 -1 -56 1 -50 5 24 14 -16 41 -71 47 -47 6
-57 10 -57 25 0 11 3 19 8 20 62 5 99 20 131 50 l25 23 -32 8 c-44 12 -44 44
1 57 17 5 24 10 15 10 -16 1 -18 12 -18 81 0 79 0 80 -25 80 -20 0 -25 5 -25
25 0 23 4 25 40 25 29 0 40 4 40 15 0 11 -11 15 -40 15 -38 0 -40 2 -40 30 0
28 -2 30 -40 30 -47 0 -54 17 -8 22 l32 3 -32 32 c-18 17 -32 34 -32 37 0 3
18 6 40 6 22 0 40 2 40 5 0 11 -67 75 -79 75 -6 0 -11 -17 -11 -40 0 -33 -3
-40 -20 -40 -17 0 -20 7 -20 41 0 39 -2 41 -25 37 -14 -3 -25 -2 -25 3 0 4
-14 21 -31 38 l-31 31 36 0 c29 0 36 4 36 19 0 12 8 21 23 24 16 3 13 5 -10 6
-26 1 -33 -3 -33 -18 0 -14 -7 -19 -25 -17 -28 1 -34 16 -7 17 9 0 3 5 -14 10
-19 5 -34 17 -37 30 -4 16 -3 18 9 8 11 -9 15 -8 20 5 4 10 13 15 20 12 8 -3
14 -2 14 3 0 4 -20 7 -45 7 -25 -1 -45 -3 -45 -6 0 -3 -33 -3 -72 1 -40 4 -99
5 -130 2 -38 -4 -58 -2 -58 5 0 6 -13 13 -30 17 -52 11 -40 20 28 21 38 1 73
-3 81 -10 11 -9 13 -8 9 4 -3 8 1 37 8 64 11 42 11 52 -3 73 -24 37 -59 47
-93 26 -26 -15 -32 -15 -67 -2 -36 14 -38 17 -35 54 1 21 9 46 17 55 8 9 18
30 21 47 5 27 2 32 -24 44 -17 7 -28 18 -25 26 3 7 -1 13 -8 14 -8 0 -5 4 6 9
14 6 15 9 5 9 -9 1 -22 10 -30 21 -17 23 -55 27 -64 5z m-7 -213 c8 -7 14 -30
15 -50 1 -35 -1 -37 -29 -38 -52 0 -83 16 -80 44 1 13 9 28 16 33 8 5 10 9 6
9 -5 0 -5 5 -2 10 9 14 56 8 74 -8z m2225 -272 c35 -13 33 -28 -8 -45 -35 -15
-158 -17 -150 -3 8 13 97 57 116 58 9 0 28 -4 42 -10z m-179 -80 c3 -5 -1 -10
-9 -10 -8 0 -18 5 -21 10 -3 6 1 10 9 10 8 0 18 -4 21 -10z m358 -67 c-6 -2
-10 -15 -7 -28 2 -15 -2 -25 -12 -29 -18 -7 -34 0 -34 15 0 15 50 62 58 54 4
-4 2 -10 -5 -12z m-101 -70 c-5 -28 -22 -30 -22 -3 0 22 -16 27 -22 8 -2 -6
-12 -9 -21 -5 -15 6 -16 10 -5 27 7 11 20 20 30 20 9 0 20 6 24 12 10 16 22
-28 16 -59z m357 45 c-2 -22 -17 -64 -18 -49 -1 7 -7 11 -16 7 -18 -6 -18 -5
-5 28 10 26 41 37 39 14z m-454 -68 c-3 -5 -1 -10 5 -10 6 0 10 -15 8 -35 -2
-39 -14 -44 -34 -17 -17 21 -18 44 -2 60 15 15 32 16 23 2z m140 -31 c5 -6 5
-9 -2 -9 -15 0 -5 -76 15 -115 14 -28 14 -29 -2 -15 -10 8 -22 26 -28 40 -9
23 -11 23 -22 8 -10 -14 -14 -11 -25 29 -11 36 -11 47 -1 53 7 4 9 13 5 19 -8
14 43 4 60 -10z m235 6 c0 -8 -4 -15 -10 -15 -5 0 -7 7 -4 15 4 8 8 15 10 15
2 0 4 -7 4 -15z m-190 -55 c13 -25 30 -42 45 -46 13 -3 29 -12 36 -20 9 -11 7
-14 -13 -14 -13 0 -31 6 -40 13 -16 12 -58 84 -58 99 0 17 11 6 30 -32z m-338
8 c-6 -6 -15 -8 -19 -4 -4 4 -1 11 7 16 19 12 27 3 12 -12z m795 -130 c-3 -8
-6 -5 -6 6 -1 11 2 17 5 13 3 -3 4 -12 1 -19z m-502 -8 c3 -5 1 -10 -4 -10 -6
0 -11 5 -11 10 0 6 2 10 4 10 3 0 8 -4 11 -10z m583 -138 c0 -22 6 -49 17 -65
9 -15 13 -27 7 -27 -5 0 -19 23 -31 51 -17 40 -20 54 -10 65 17 21 19 18 17
-24z m103 -88 c27 -20 49 -40 49 -45 0 -5 -25 9 -55 32 -30 23 -55 43 -55 45
0 10 16 1 61 -32z m-2251 -14 c0 -13 -26 -19 -41 -9 -12 8 -12 10 0 18 15 10
41 4 41 -9z m-100 -144 c0 -9 -7 -12 -20 -9 -11 3 -17 9 -14 14 8 14 34 10 34
-5z m2822 -3 c19 -17 25 -62 8 -64 -5 -1 -16 -2 -22 -3 -20 -3 -58 16 -52 25
2 5 18 6 34 2 33 -6 39 7 15 27 -15 13 -20 30 -8 30 3 0 15 -7 25 -17z m-2767
-142 c3 -5 2 -12 -3 -15 -5 -3 -9 1 -9 9 0 17 3 19 12 6z m625 -45 c0 -2 -7
-7 -16 -10 -8 -3 -12 -2 -9 4 6 10 25 14 25 6z m1561 -20 c43 -18 107 -81 125
-123 32 -75 1 -209 -78 -343 -26 -44 -39 -55 -60 -56 -33 -1 -35 29 -3 46 36
19 68 79 87 163 22 101 22 137 3 185 -17 39 -46 69 -102 103 -57 35 -37 52 28
25z m-134 -35 c9 -5 6 -11 -10 -21 -12 -8 -39 -33 -59 -54 -31 -32 -39 -36
-44 -22 -10 25 3 60 32 90 26 26 44 27 81 7z m-2090 -87 c-3 -3 -12 -4 -19 -1
-8 3 -5 6 6 6 11 1 17 -2 13 -5z m2165 -29 c6 -14 15 -25 19 -25 19 0 59 -106
59 -156 0 -46 -4 -55 -31 -78 -22 -19 -42 -26 -72 -26 -31 0 -45 -5 -54 -19
-13 -20 -2 -36 41 -58 11 -6 21 -18 22 -26 3 -24 -23 -28 -48 -6 -19 16 -20
18 -4 12 13 -4 17 -3 12 5 -4 7 -15 12 -24 12 -23 0 -91 -62 -74 -68 19 -6 14
-22 -7 -22 -24 0 -81 47 -81 67 0 8 7 21 15 30 8 8 13 18 10 23 -3 5 8 11 24
15 17 3 43 20 60 37 26 27 35 30 67 25 67 -11 114 31 100 89 -9 35 -62 82
-108 96 -42 12 -45 29 -7 38 13 3 30 18 37 33 16 34 29 34 44 2z m-1519 -109
c22 -5 28 -12 25 -29 -3 -20 -9 -22 -79 -25 -62 -2 -78 0 -82 13 -11 27 4 44
41 48 39 4 50 3 95 -7z m-1184 -29 c15 -19 4 -27 -39 -27 -20 0 -40 3 -43 7
-12 12 15 33 43 33 15 0 33 -6 39 -13z m2041 -7 c0 -5 -5 -10 -11 -10 -5 0 -7
5 -4 10 3 6 8 10 11 10 2 0 4 -4 4 -10z m494 -42 c-3 -18 -17 -46 -30 -61 -27
-33 -29 -38 -12 -55 8 -8 9 -12 1 -12 -6 0 -20 -3 -30 -6 -15 -5 -15 -4 -3 5
10 7 11 11 3 11 -17 0 -17 40 0 76 22 50 41 74 60 74 16 0 17 -5 11 -32z
m-1923 -30 c11 -18 -19 -40 -44 -32 -30 9 -89 7 -96 -4 -11 -17 -231 -13 -268
5 -19 8 -35 18 -37 22 -2 3 48 5 112 4 133 -2 182 4 161 18 -10 7 -5 8 12 3
15 -3 29 -1 32 4 9 13 118 -4 128 -20z m-491 12 c0 -5 -5 -10 -11 -10 -5 0 -7
5 -4 10 3 6 8 10 11 10 2 0 4 -4 4 -10z m-316 -15 c-4 -8 -11 -12 -16 -9 -6 4
-5 10 3 15 19 12 19 11 13 -6z m1331 1 c25 -11 33 -19 29 -31 -4 -9 -13 -14
-21 -11 -8 3 -11 2 -8 -4 4 -7 -27 -8 -77 -1 -5 1 -8 7 -8 15 0 8 -6 17 -12
19 -8 3 -6 6 5 6 9 1 17 6 17 11 0 14 35 12 75 -4z m-1287 -19 c6 10 79 12
135 4 4 -1 7 -10 7 -21 0 -25 -35 -34 -92 -26 -24 4 -55 7 -70 7 -15 0 -30 4
-33 9 -4 6 1 7 11 3 12 -4 15 -3 10 5 -11 18 4 38 15 21 7 -11 11 -11 17 -2z
m2112 -3 c0 -3 -7 -12 -15 -20 -13 -14 -15 -13 -15 5 0 12 6 21 15 21 8 0 15
-3 15 -6z m-1754 -111 c-10 -10 -19 5 -10 18 6 11 8 11 12 0 2 -7 1 -15 -2
-18z m-611 -53 c3 -6 -1 -7 -9 -4 -18 7 -21 14 -7 14 6 0 13 -4 16 -10z m-15
-14 c0 -3 -4 -8 -10 -11 -5 -3 -10 -1 -10 4 0 6 5 11 10 11 6 0 10 -2 10 -4z
m1155 -16 c-3 -5 -16 -10 -28 -9 -21 0 -21 1 -2 9 28 12 37 12 30 0z m-898
-25 c7 -8 13 -18 13 -24 0 -6 12 -13 28 -17 44 -9 72 -23 72 -35 0 -8 -28 -9
-97 -5 -54 4 -107 7 -118 8 -11 0 -44 -4 -74 -11 -41 -8 -57 -8 -68 1 -9 7
-10 15 -4 21 5 5 7 22 4 38 -7 34 2 37 131 37 69 0 104 -4 113 -13z m166 8
c-7 -2 -21 -2 -30 0 -10 3 -4 5 12 5 17 0 24 -2 18 -5z m-477 -30 c-4 -9 -1
-21 6 -26 9 -6 7 -7 -6 -3 -10 4 -35 1 -53 -5 -22 -7 -38 -8 -44 -2 -14 14 15
35 59 44 20 3 39 7 41 8 2 0 0 -7 -3 -16z m310 -118 c-11 -8 -28 -15 -37 -15
-10 0 -23 -2 -31 -3 -7 -2 -9 -2 -4 1 4 2 2 8 -5 13 -9 6 -2 7 17 3 19 -4 34
-1 38 5 4 6 15 11 24 11 15 -1 15 -2 -2 -15z m394 -39 c-6 -6 -14 -11 -18 -12
-4 0 -14 -4 -23 -8 -8 -4 -26 -3 -40 2 -24 9 -24 9 8 16 18 4 35 11 38 16 3 4
14 6 26 3 15 -4 17 -9 9 -17z m133 -3 c-7 -2 -21 -2 -30 0 -10 3 -4 5 12 5 17
0 24 -2 18 -5z m-268 -18 c-30 -23 -175 -60 -271 -69 -16 -1 -36 -6 -43 -10
-16 -10 -147 -10 -163 0 -14 9 -18 10 -45 14 -11 1 -6 6 14 13 19 7 88 12 162
12 71 0 127 3 125 7 -5 8 54 22 88 20 15 -1 30 2 33 8 4 6 11 8 16 5 5 -4 17
-1 26 4 10 6 32 10 48 10 29 0 29 0 10 -14z m65 -95 c-8 -5 -19 -10 -25 -10
-5 0 -3 5 5 10 8 5 20 10 25 10 6 0 3 -5 -5 -10z m-153 -6 c-3 -3 -12 -4 -19
-1 -8 3 -5 6 6 6 11 1 17 -2 13 -5z m183 -28 c0 -3 -4 -8 -10 -11 -5 -3 -10
-1 -10 4 0 6 5 11 10 11 6 0 10 -2 10 -4z m76 -27 l19 -22 -47 5 c-26 3 -45 2
-43 -3 3 -4 -12 -6 -32 -4 -21 3 -30 2 -20 -1 26 -8 20 -22 -8 -16 -14 2 -23
8 -20 12 3 5 -1 11 -7 13 -7 3 -2 6 12 8 34 3 54 6 60 8 3 2 13 4 23 6 11 2
21 6 25 9 10 10 18 7 38 -15z m-253 -33 c-4 -5 1 -7 11 -3 10 4 30 10 44 13
27 6 27 6 6 -10 -25 -18 -144 -30 -144 -14 0 6 -6 6 -14 -1 -9 -8 -16 -8 -20
-2 -4 5 2 14 11 20 22 13 114 10 106 -3z m266 -62 c2 -2 -12 -4 -32 -4 -19 0
-43 -3 -51 -6 -12 -4 -15 -2 -10 9 4 11 16 14 47 10 23 -3 44 -7 46 -9z m554
-17 c-26 -14 -30 -27 -11 -38 7 -5 8 -9 2 -9 -5 0 -19 6 -29 14 -18 13 -17 14
11 29 16 9 34 16 39 16 6 0 0 -5 -12 -12z m-987 -5 c6 -4 4 -13 -7 -24 -16
-15 -17 -15 -22 2 -7 27 7 38 29 22z m308 -63 c-3 -5 -10 -7 -15 -3 -5 3 -7
10 -3 15 3 5 10 7 15 3 5 -3 7 -10 3 -15z m631 1 c19 -8 19 -9 -2 -9 -12 -1
-25 4 -28 9 -7 12 2 12 30 0z m-261 -11 c10 0 20 -9 23 -20 6 -21 20 -24 58
-9 19 7 32 7 45 -3 18 -12 18 -15 4 -35 -8 -12 -26 -22 -38 -22 -13 0 -29 -7
-36 -15 -14 -16 -50 -21 -50 -6 0 5 6 12 13 15 6 3 1 3 -12 0 -16 -4 -21 -2
-17 5 5 7 -3 9 -25 4 -22 -4 -30 -3 -25 5 4 6 14 8 23 5 12 -5 14 -3 8 7 -6
10 -2 11 19 6 15 -4 26 -2 26 3 0 26 -116 24 -165 -3 -33 -18 -72 -20 -94 -7
-10 6 0 8 29 4 33 -5 41 -3 35 7 -4 7 -2 16 6 22 10 6 7 7 -10 3 -15 -5 -21
-3 -17 3 3 6 2 13 -3 16 -5 3 -11 -1 -15 -9 -3 -8 3 -19 12 -24 10 -6 12 -11
5 -11 -7 0 -23 10 -35 22 -14 14 -16 19 -5 15 8 -3 17 -1 20 6 2 7 15 12 30
12 14 1 24 -2 22 -5 -2 -4 9 -7 25 -7 17 0 30 4 30 9 0 5 9 7 19 3 11 -3 22
-1 26 5 4 7 16 9 29 5 11 -4 29 -7 40 -6z m191 1 c-3 -5 -13 -10 -21 -10 -8 0
-12 5 -9 10 3 6 13 10 21 10 8 0 12 -4 9 -10z m38 -14 c4 -10 1 -13 -9 -9 -7
3 -14 9 -14 14 0 14 17 10 23 -5z m-647 -33 c-4 -9 -1 -20 6 -25 7 -4 -2 -5
-22 -2 -26 4 -31 3 -20 -5 18 -13 1 -14 -19 -2 -12 8 -9 11 12 16 15 4 25 11
22 15 -3 5 1 11 7 13 20 8 21 8 14 -10z m147 10 c-7 -2 -19 -2 -25 0 -7 3 -2
5 12 5 14 0 19 -2 13 -5z m-13 -23 l-25 -8 25 -2 c23 -1 22 -3 -10 -15 -49
-19 -60 -18 -60 4 0 19 21 27 75 29 15 0 14 -2 -5 -8z m-685 -40 c3 -5 -1 -10
-9 -10 -9 0 -16 5 -16 10 0 6 4 10 9 10 6 0 13 -4 16 -10z m121 -21 l29 -31
-35 5 c-19 2 -44 0 -55 -5 l-20 -11 20 20 c11 11 23 19 27 17 4 -3 9 0 13 6 3
5 1 10 -4 10 -6 0 -11 5 -11 10 0 15 4 13 36 -21z m1391 -45 c-3 -3 -12 -4
-19 -1 -8 3 -5 6 6 6 11 1 17 -2 13 -5z m354 -9 c0 -6 -10 -12 -22 -13 -19 -3
-20 -2 -8 12 15 16 31 17 30 1z m-1547 -18 c-4 -12 -44 -22 -44 -11 0 4 30 18
47 23 1 1 0 -5 -3 -12z m441 0 c16 -13 15 -14 -16 -14 -19 0 -25 2 -15 4 15 4
16 7 5 14 -8 5 -9 9 -3 9 5 0 18 -6 29 -13z m145 6 c-1 -19 -19 -35 -30 -28
-9 5 -11 4 -6 -3 4 -7 3 -12 -3 -12 -5 0 -16 -3 -24 -6 -10 -3 -20 3 -28 18
-6 13 -8 20 -4 16 4 -4 14 -1 22 7 15 15 73 21 73 8z m291 -4 c42 -9 53 -9 61
2 8 11 9 11 5 -1 -3 -11 -18 -15 -54 -15 -28 0 -49 3 -47 7 2 3 -4 9 -13 11
-37 10 -2 7 48 -4z m-497 -7 c2 -4 -4 -8 -14 -8 -10 0 -16 4 -14 8 3 4 9 8 14
8 5 0 11 -4 14 -8z m710 -11 c-8 -8 61 -43 87 -45 15 -1 26 1 23 5 -2 4 5 9
16 12 13 3 25 -2 35 -16 16 -23 10 -41 -11 -33 -26 10 -42 -5 -49 -45 -6 -34
-10 -39 -33 -39 -20 0 -23 -3 -13 -9 11 -7 3 -15 -32 -31 -25 -12 -51 -19 -57
-15 -5 3 -10 2 -10 -3 0 -13 -49 -22 -85 -15 -26 6 -27 7 -10 15 14 5 5 7 -27
5 -45 -2 -63 6 -35 16 6 2 9 7 5 11 -3 4 -16 1 -27 -6 -18 -11 -23 -11 -30 0
-4 7 -16 10 -27 6 -14 -4 -15 -3 -6 4 11 7 10 10 -3 16 -25 9 -43 7 -26 -3 9
-6 10 -11 2 -15 -6 -4 -18 0 -27 8 -18 19 -25 20 -21 5 1 -6 -6 -13 -15 -14
-20 -4 -24 11 -5 18 6 3 2 6 -10 6 -13 1 -23 -5 -23 -11 0 -9 -3 -8 -10 2 -6
9 -5 17 2 21 18 11 -1 29 -30 28 l-27 -1 30 -8 c29 -7 29 -8 8 -15 -13 -4 -23
-14 -23 -21 0 -17 -30 -19 -30 -1 -1 8 -5 7 -13 -3 -12 -16 -44 -15 -62 1 -6
6 -2 12 13 15 12 4 19 10 16 15 -3 5 2 9 10 9 9 0 16 5 16 10 0 6 14 10 30 10
17 0 49 9 70 19 32 15 41 16 50 6 7 -8 27 -12 51 -11 31 3 42 -1 50 -16 8 -14
18 -19 35 -15 13 2 24 0 24 -4 0 -5 7 -9 15 -9 8 0 15 6 15 14 0 31 27 39 79
22 53 -17 111 -21 111 -8 0 9 -13 16 -81 46 -38 16 -56 41 -38 51 5 4 7 10 5
14 -3 4 19 7 49 7 29 -1 51 -3 49 -5z m-624 -15 c0 -2 -7 -7 -16 -10 -8 -3
-12 -2 -9 4 6 10 25 14 25 6z m-147 -47 c4 -3 0 -12 -9 -20 -16 -12 -17 -12
-12 2 5 13 -1 16 -40 14 -29 -2 -34 -1 -12 2 19 2 39 8 44 14 5 5 12 5 15 1 3
-4 10 -9 14 -13z m97 1 c-19 -12 -50 -13 -50 -1 0 9 50 20 60 13 2 -2 -2 -7
-10 -12z m-427 -27 c-7 -2 -19 -2 -25 0 -7 3 -2 5 12 5 14 0 19 -2 13 -5z
m1034 1 c-3 -3 -12 -4 -19 -1 -8 3 -5 6 6 6 11 1 17 -2 13 -5z m-367 -114 c0
-5 -7 -10 -16 -10 -8 0 -12 5 -9 10 3 6 10 10 16 10 5 0 9 -4 9 -10z m95 -71
c4 -6 -1 -16 -11 -24 -16 -12 -19 -12 -22 1 -2 8 -16 15 -30 15 -27 1 -27 1 3
9 44 11 53 11 60 -1z m-308 -5 c-3 -3 -12 -4 -19 -1 -8 3 -5 6 6 6 11 1 17 -2
13 -5z m470 -9 c98 0 123 -43 45 -76 -47 -20 -75 -11 -97 32 -13 24 -21 30
-38 26 -12 -3 -33 -8 -47 -12 -20 -4 -18 -2 8 12 17 9 32 21 32 26 0 5 8 6 18
1 9 -4 45 -8 79 -9z m-432 -5 c-3 -5 1 -10 9 -10 9 0 16 5 16 10 0 6 8 10 18
10 20 -1 103 -39 85 -40 -6 0 -15 -9 -18 -20 -6 -18 -8 -18 -22 -5 -8 9 -13
21 -10 28 3 9 -15 12 -67 13 -41 1 -63 -2 -51 -6 13 -5 1 -7 -32 -6 -66 1 -69
13 -5 21 42 6 72 11 80 14 2 0 0 -3 -3 -9z m165 -5 c-7 -9 -15 -13 -19 -10 -3
3 1 10 9 15 21 14 24 12 10 -5z m779 -36 c-7 -4 -16 -6 -20 -3 -4 2 -10 0 -14
-6 -3 -5 -11 -10 -16 -10 -5 0 -4 6 3 14 7 7 24 14 37 14 16 0 19 -3 10 -9z
m-859 -50 c0 -6 7 -9 15 -5 8 3 15 1 15 -4 0 -6 3 -9 8 -8 4 1 20 -2 36 -7 22
-6 32 -4 40 7 12 17 57 19 68 3 5 -6 8 -5 8 3 0 17 62 13 79 -5 14 -15 17 -15
-84 -18 -125 -4 -122 -4 -105 -16 12 -9 12 -10 -3 -5 -10 3 -32 6 -48 6 -21 0
-27 4 -23 15 6 13 -6 20 -28 16 -5 0 -8 6 -8 14 0 8 7 15 15 15 8 0 15 -5 15
-11z m-140 -3 c0 -11 -19 -15 -25 -6 -3 5 1 10 9 10 9 0 16 -2 16 -4z m457
-12 c-3 -3 -12 -4 -19 -1 -8 3 -5 6 6 6 11 1 17 -2 13 -5z m-587 -29 c15 9 12
-1 -6 -19 -8 -9 -27 -16 -42 -15 -25 0 -25 1 -7 10 16 8 14 8 -11 5 -46 -7
-51 7 -7 19 23 7 43 8 50 2 7 -5 17 -6 23 -2z m487 -1 c-3 -3 -12 -4 -19 -1
-8 3 -5 6 6 6 11 1 17 -2 13 -5z m1009 -6 c-14 -10 -141 -8 -181 2 -18 5 13 7
81 6 62 0 107 -4 100 -8z m67 5 c-7 -2 -19 -2 -25 0 -7 3 -2 5 12 5 14 0 19
-2 13 -5z m-1303 -8 c0 -2 -9 -9 -20 -15 -16 -9 -20 -8 -20 5 0 8 9 15 20 15
11 0 20 -2 20 -5z m1445 -35 c10 -11 30 -20 45 -20 20 0 29 -6 33 -21 3 -11
15 -23 27 -26 20 -5 20 -7 4 -24 -10 -11 -22 -29 -28 -41 -10 -20 -41 -33
-133 -55 -25 -6 -61 21 -42 32 5 4 14 18 20 32 5 13 13 22 18 19 4 -3 17 1 27
9 28 20 8 35 -55 39 -28 2 -55 6 -58 10 -3 3 -16 -6 -29 -19 -29 -31 -32 -31
-30 0 1 20 5 24 21 19 20 -5 20 -5 1 10 -11 9 -18 17 -15 19 18 13 63 26 71
21 7 -4 8 -2 4 4 -5 9 9 12 47 12 41 0 58 -5 72 -20z m-270 0 c-3 -5 -18 -9
-33 -9 l-27 1 30 8 c17 4 31 8 33 9 2 0 0 -3 -3 -9z m-575 -10 c0 -5 -5 -10
-11 -10 -5 0 -7 5 -4 10 3 6 8 10 11 10 2 0 4 -4 4 -10z m-715 -10 c17 -4 22
-8 13 -9 -9 0 -24 -4 -34 -8 -13 -5 -15 -3 -9 7 6 10 2 11 -21 6 -16 -4 -31
-11 -34 -15 -14 -21 -48 -30 -65 -17 -17 12 -17 14 6 29 25 18 90 21 144 7z
m605 0 c0 -5 -4 -10 -10 -10 -5 0 -10 5 -10 10 0 6 5 10 10 10 6 0 10 -4 10
-10z m481 -45 c0 -5 -5 -11 -13 -13 -10 -3 -10 -1 1 6 11 8 10 11 -5 15 -16 5
-16 6 -1 4 10 -1 18 -6 18 -12z m-1371 -31 c0 -2 -9 -4 -20 -4 -11 0 -20 4
-20 9 0 5 9 7 20 4 11 -3 20 -7 20 -9z m724 1 c3 -8 1 -15 -3 -15 -5 0 -18 -3
-28 -6 -16 -6 -16 -5 2 10 19 15 19 16 1 9 -13 -4 -17 -3 -12 5 10 17 33 15
40 -3z m901 -5 c3 -5 18 -8 33 -6 15 2 20 1 12 -1 -8 -3 -18 -10 -21 -15 -4
-5 -25 -11 -48 -11 -22 -1 -41 -5 -41 -9 0 -5 -6 -8 -12 -8 -21 1 32 40 56 41
16 1 13 3 -9 9 l-30 8 27 1 c15 0 30 -3 33 -9z m70 -30 c-3 -5 -11 -10 -16
-10 -6 0 -7 5 -4 10 3 6 11 10 16 10 6 0 7 -4 4 -10z m-180 -41 c-8 -12 -35
-12 -35 0 0 11 22 20 33 14 4 -2 5 -9 2 -14z m-1280 -69 c-3 -5 -12 -10 -18
-10 -7 0 -6 4 3 10 19 12 23 12 15 0z m1565 -70 c-8 -6 -24 -9 -35 -9 l-20 1
20 5 c11 3 24 9 29 14 5 5 12 6 15 3 3 -3 -1 -9 -9 -14z m-315 -90 c3 -6 -1
-7 -9 -4 -18 7 -21 14 -7 14 6 0 13 -4 16 -10z m1714 -156 c4 3 20 -4 37 -15
37 -24 19 -25 -30 -1 -20 10 -33 21 -29 26 4 4 9 2 11 -3 2 -6 7 -9 11 -7z
m-1609 -218 c0 -2 -7 -7 -16 -10 -8 -3 -12 -2 -9 4 6 10 25 14 25 6z"/>
<path d="M520 2140 c-8 -5 -10 -10 -5 -10 6 0 17 5 25 10 8 5 11 10 5 10 -5 0
-17 -5 -25 -10z"/>
<path d="M735 1970 c-3 -6 1 -7 9 -4 18 7 21 14 7 14 -6 0 -13 -4 -16 -10z"/>
<path d="M1837 1396 c-4 -10 -1 -13 8 -9 8 3 12 9 9 14 -7 12 -11 11 -17 -5z"/>
<path d="M1667 1266 c-4 -10 -1 -13 8 -9 8 3 12 9 9 14 -7 12 -11 11 -17 -5z"/>
<path d="M1690 1245 c-16 -19 -10 -19 26 0 25 13 26 15 8 15 -12 0 -27 -7 -34
-15z"/>
<path d="M1138 1143 c7 -3 16 -2 19 1 4 3 -2 6 -13 5 -11 0 -14 -3 -6 -6z"/>
<path d="M1318 1033 c7 -3 16 -2 19 1 4 3 -2 6 -13 5 -11 0 -14 -3 -6 -6z"/>
<path d="M1228 1023 c7 -3 16 -2 19 1 4 3 -2 6 -13 5 -11 0 -14 -3 -6 -6z"/>
<path d="M2604 854 c-10 -8 -13 -13 -6 -9 6 3 12 2 12 -4 0 -6 7 -8 16 -4 12
4 13 8 3 13 -8 6 -6 9 7 13 13 3 14 5 3 6 -8 0 -24 -6 -35 -15z"/>
<path d="M2630 820 c-9 -6 -10 -10 -3 -10 6 0 15 5 18 10 8 12 4 12 -15 0z"/>
<path d="M2970 4309 c0 -15 5 -19 18 -15 10 4 27 -1 38 -9 25 -19 54 -19 54
-1 0 22 -40 46 -77 46 -27 0 -33 -4 -33 -21z"/>
<path d="M1340 4275 c-38 -28 -54 -58 -45 -86 9 -27 33 -23 65 11 15 17 32 30
38 30 8 0 22 22 22 35 0 7 -31 35 -39 35 -4 0 -23 -11 -41 -25z"/>
<path d="M1470 4289 c0 -27 42 -79 64 -79 33 0 37 9 19 41 -22 37 -83 65 -83
38z"/>
<path d="M3368 4293 c7 -3 16 -2 19 1 4 3 -2 6 -13 5 -11 0 -14 -3 -6 -6z"/>
<path d="M2573 4273 c-10 -8 -12 -11 -4 -7 11 5 13 2 9 -14 -4 -12 -3 -20 2
-17 4 3 10 -1 13 -9 3 -7 18 -17 34 -20 15 -4 42 -18 60 -32 28 -21 83 -34 83
-19 0 3 -18 23 -41 45 -24 23 -38 44 -34 50 6 9 2 9 -13 1 -15 -8 -21 -8 -24
0 -2 6 -18 17 -35 24 -27 11 -34 11 -50 -2z"/>
<path d="M3215 4263 c-16 -8 -32 -17 -33 -19 -10 -8 45 -64 69 -69 34 -8 69 9
69 34 0 21 -39 51 -67 52 -16 0 -16 1 2 9 13 6 15 9 5 9 -8 0 -28 -7 -45 -16z"/>
<path d="M4820 4256 c0 -9 7 -16 16 -16 9 0 14 5 12 12 -6 18 -28 21 -28 4z"/>
<path d="M2750 4235 c-16 -20 -6 -45 19 -45 26 0 34 15 21 40 -13 24 -23 25
-40 5z"/>
<path d="M3070 4241 c0 -11 26 -22 34 -14 12 12 5 23 -14 23 -11 0 -20 -4 -20
-9z"/>
<path d="M4698 4243 c7 -3 16 -2 19 1 4 3 -2 6 -13 5 -11 0 -14 -3 -6 -6z"/>
<path d="M4520 4211 c0 -24 3 -28 20 -24 21 6 24 12 14 37 -11 28 -34 18 -34
-13z"/>
<path d="M2497 4204 c3 -7 9 -14 14 -14 14 0 10 17 -5 23 -10 4 -13 1 -9 -9z"/>
<path d="M800 4175 c0 -20 28 -75 38 -75 4 0 13 4 20 9 10 6 9 15 -8 44 -22
38 -50 49 -50 22z"/>
<path d="M2964 4175 c-16 -42 48 -102 81 -75 24 20 18 36 -22 61 -52 33 -52
33 -59 14z"/>
<path d="M3103 4155 c-3 -9 -4 -17 -2 -19 19 -13 82 -46 90 -46 11 0 -27 59
-46 72 -17 12 -35 9 -42 -7z"/>
<path d="M3350 4144 c0 -19 59 -44 106 -44 50 0 40 21 -22 42 -63 21 -84 22
-84 2z"/>
<path d="M1555 4141 c-3 -6 -24 -11 -45 -11 -21 0 -42 -5 -46 -12 -10 -16 27
-40 52 -34 12 3 27 0 33 -8 6 -8 21 -16 32 -19 18 -5 20 -1 17 41 -2 34 -8 48
-20 50 -9 2 -19 -2 -23 -7z"/>
<path d="M2565 4140 c-3 -5 1 -10 10 -10 9 0 13 5 10 10 -3 6 -8 10 -10 10 -2
0 -7 -4 -10 -10z"/>
<path d="M2615 4129 c-4 -5 5 -13 18 -18 24 -9 43 -39 32 -50 -4 -3 -24 5 -47
17 -47 28 -56 25 -27 -11 24 -32 66 -36 95 -9 11 10 25 17 32 14 18 -6 14 23
-5 40 -22 18 -90 30 -98 17z"/>
<path d="M3280 4121 c0 -21 13 -41 26 -41 17 0 18 22 2 38 -14 14 -28 16 -28
3z"/>
<path d="M4497 4123 c-10 -16 48 -64 79 -66 27 -2 29 0 26 28 -2 17 -6 32 -7
34 -9 9 -93 12 -98 4z"/>
<path d="M1132 4099 c1 -12 9 -24 16 -27 9 -3 13 3 10 19 -1 12 -9 24 -16 27
-9 3 -13 -3 -10 -19z"/>
<path d="M4912 4103 c2 -10 14 -19 26 -21 21 -3 22 -1 12 17 -13 26 -43 28
-38 4z"/>
<path d="M2085 4084 c-20 -20 -15 -35 17 -54 22 -12 29 -12 42 -1 22 18 20 48
-3 61 -27 14 -37 13 -56 -6z"/>
<path d="M2877 4083 c-14 -13 -6 -24 15 -21 27 4 36 28 11 28 -11 0 -23 -3
-26 -7z"/>
<path d="M1871 4059 c-19 -8 -21 -12 -11 -24 15 -19 60 -19 85 -2 39 29 -17
49 -74 26z"/>
<path d="M3340 4050 c0 -5 15 -10 33 -10 24 0 28 3 17 10 -20 13 -50 13 -50 0z"/>
<path d="M1684 4039 l-32 -9 32 -35 c48 -52 96 -44 96 16 0 38 -30 47 -96 28z"/>
<path d="M1202 4031 c-11 -7 -11 -9 1 -14 16 -6 27 0 27 15 0 10 -11 10 -28
-1z"/>
<path d="M3250 4030 c0 -5 5 -10 10 -10 6 0 10 5 10 10 0 6 -4 10 -10 10 -5 0
-10 -4 -10 -10z"/>
<path d="M4256 4025 c-3 -10 -2 -23 4 -29 15 -15 24 1 13 26 -9 20 -10 20 -17
3z"/>
<path d="M3712 4018 c2 -6 10 -14 16 -16 7 -2 10 2 6 12 -7 18 -28 22 -22 4z"/>
<path d="M4623 4016 c0 -11 10 -16 30 -16 35 0 32 24 -5 28 -17 2 -25 -2 -25
-12z"/>
<path d="M950 4005 c-17 -21 -3 -58 21 -52 10 3 19 1 19 -4 0 -5 9 -9 20 -9
11 0 20 -3 20 -7 0 -5 12 -14 28 -21 39 -20 83 -32 77 -22 -3 4 1 10 7 13 25
9 -8 41 -58 59 -27 10 -61 27 -76 38 -32 24 -42 25 -58 5z"/>
<path d="M3495 4010 c3 -5 13 -10 21 -10 8 0 12 5 9 10 -3 6 -13 10 -21 10 -8
0 -12 -4 -9 -10z"/>
<path d="M4240 3980 l25 -22 -25 6 c-24 5 -24 5 -5 -11 20 -15 20 -15 -2 -9
-25 8 -80 -34 -69 -52 9 -15 211 -13 231 2 12 9 13 18 2 53 -7 23 -16 45 -19
49 -10 9 -39 -16 -32 -27 3 -5 0 -9 -5 -9 -6 0 -11 -8 -12 -17 0 -13 -2 -14
-6 -4 -4 9 -7 10 -13 2 -4 -7 -15 -9 -25 -5 -17 7 -17 8 -1 14 13 4 8 11 -26
29 -42 22 -42 22 -18 1z"/>
<path d="M2433 3979 c-14 -14 -6 -39 12 -39 7 0 18 7 26 16 10 13 10 17 -2 25
-18 11 -23 11 -36 -2z"/>
<path d="M3140 3982 c0 -16 48 -54 59 -47 19 11 12 21 -24 38 -19 9 -35 13
-35 9z"/>
<path d="M3504 3973 c9 -10 22 -27 30 -38 8 -11 18 -16 22 -12 14 13 -20 62
-44 65 -21 3 -22 2 -8 -15z"/>
<path d="M1928 3965 c-16 -9 -28 -20 -28 -24 0 -5 -11 -12 -25 -15 -20 -5 -25
-12 -25 -40 0 -35 14 -48 55 -51 37 -3 64 -16 70 -34 3 -12 16 -18 38 -18 72
-2 89 -5 76 -14 -10 -6 -10 -9 -2 -9 12 0 26 17 29 35 1 6 5 18 9 28 8 19 13
18 -98 20 -80 2 -99 12 -90 46 3 9 19 25 36 36 18 11 32 27 32 35 0 21 -44 23
-77 5z"/>
<path d="M2280 3963 c-34 -7 -50 -21 -43 -40 7 -17 53 -11 113 13 56 24 10 41
-70 27z"/>
<path d="M3320 3940 c32 -26 89 -51 110 -48 9 2 31 -9 49 -25 36 -30 67 -36
57 -11 -3 9 -6 18 -6 20 0 2 -7 4 -15 4 -9 0 -18 7 -21 15 -4 8 -17 15 -29 15
-13 0 -39 9 -57 19 -18 11 -51 22 -73 26 l-40 6 25 -21z"/>
<path d="M4488 3950 c-18 -5 -23 -13 -23 -35 l0 -30 296 -3 c167 -2 299 0 302
5 3 5 -2 23 -12 39 l-18 29 -261 0 c-143 0 -271 -2 -284 -5z"/>
<path d="M3660 3942 c0 -12 28 -48 33 -42 8 8 -11 50 -23 50 -5 0 -10 -4 -10
-8z"/>
<path d="M1217 3916 c-7 -18 30 -53 42 -40 12 13 -5 54 -23 54 -7 0 -16 -6
-19 -14z"/>
<path d="M1588 3913 c7 -3 16 -2 19 1 4 3 -2 6 -13 5 -11 0 -14 -3 -6 -6z"/>
<path d="M3570 3854 c6 -14 8 -30 5 -34 -6 -10 63 -65 71 -57 3 3 -3 18 -14
34 -10 15 -27 40 -36 56 -21 35 -39 36 -26 1z"/>
<path d="M2176 3848 c-37 -33 -43 -71 -16 -98 26 -26 30 -23 35 25 2 20 13 47
24 59 12 12 21 25 21 29 0 15 -40 6 -64 -15z"/>
<path d="M3336 3862 c-6 -10 53 -37 61 -28 8 7 -27 35 -44 36 -6 0 -14 -4 -17
-8z"/>
<path d="M1160 3851 c0 -3 8 -11 18 -18 15 -9 19 -8 19 2 0 8 -9 16 -19 18
-10 3 -18 2 -18 -2z"/>
<path d="M1365 3830 c3 -5 16 -10 28 -11 21 0 21 -1 2 -9 -15 -7 -16 -9 -4 -9
19 -1 42 23 32 32 -11 11 -65 8 -58 -3z"/>
<path d="M1305 3820 c11 -5 29 -8 40 -8 16 0 15 2 -5 8 -34 11 -60 11 -35 0z"/>
<path d="M1453 3820 c-13 -5 -23 -11 -23 -12 0 -2 25 -3 55 -4 30 -1 52 2 50
7 -3 4 5 10 17 12 13 2 1 5 -27 5 -27 0 -60 -3 -72 -8z"/>
<path d="M3805 3814 c-16 -7 -40 -11 -52 -9 -20 5 -23 2 -22 -27 0 -18 4 -57
8 -85 4 -29 5 -53 2 -53 -3 1 -15 20 -26 43 -11 23 -28 43 -37 45 -28 5 -22
-26 11 -59 18 -18 24 -29 15 -29 -20 0 -17 -17 6 -33 11 -8 18 -16 15 -19 -3
-3 1 -11 10 -18 8 -7 15 -20 15 -30 0 -10 7 -23 16 -31 10 -8 14 -22 10 -41
-3 -15 -1 -30 4 -33 6 -3 10 2 10 11 0 15 3 15 20 -4 12 -12 27 -22 35 -22 16
0 65 -71 65 -94 0 -8 10 -27 23 -41 19 -22 26 -25 47 -16 14 5 19 10 12 10 -7
1 -11 5 -8 10 3 4 -17 41 -45 82 -27 41 -61 91 -74 112 -14 20 -30 37 -35 37
-6 0 -10 8 -10 18 0 9 -11 34 -24 53 l-25 36 65 -17 c36 -10 73 -24 82 -32 32
-26 102 -53 102 -38 0 11 -51 50 -107 80 -44 24 -54 44 -28 54 21 8 19 22 -6
47 -19 19 -19 22 -5 38 20 22 12 31 -26 31 -17 0 -27 4 -23 10 3 6 15 10 26
10 10 0 19 5 19 10 0 14 -29 11 -65 -6z"/>
<path d="M3245 3810 c-3 -5 8 -16 24 -24 26 -14 30 -14 35 1 10 26 -44 48 -59
23z"/>
<path d="M3690 3801 c0 -11 5 -23 10 -26 6 -3 10 3 10 14 0 11 -4 23 -10 26
-5 3 -10 -3 -10 -14z"/>
<path d="M3419 3805 c-3 -3 -21 -7 -39 -9 -35 -4 -81 -48 -57 -54 7 -2 19 -6
27 -9 20 -8 84 -3 88 6 3 10 64 1 79 -11 7 -6 25 -7 39 -4 35 9 23 21 -53 53
-32 13 -63 26 -69 29 -5 2 -12 2 -15 -1z"/>
<path d="M3935 3800 c-7 -12 2 -12 30 0 19 8 19 9 -2 9 -12 1 -25 -3 -28 -9z"/>
<path d="M1498 3783 c7 -3 16 -2 19 1 4 3 -2 6 -13 5 -11 0 -14 -3 -6 -6z"/>
<path d="M4088 3785 c-2 -3 -44 -12 -91 -21 -57 -11 -87 -21 -87 -29 0 -8 8
-16 18 -19 24 -8 60 -47 86 -93 12 -21 30 -37 41 -38 11 -2 28 -6 37 -10 14
-6 22 2 38 41 11 27 24 57 30 66 15 27 12 63 -7 80 -20 18 -57 31 -65 23z m13
-46 c11 -21 7 -94 -6 -107 -3 -4 -24 13 -46 37 -24 26 -46 41 -54 37 -8 -3
-15 -1 -15 5 0 10 76 48 97 49 7 0 17 -10 24 -21z m-61 -100 c15 -28 5 -23
-15 7 -9 15 -12 23 -6 20 6 -4 16 -16 21 -27z"/>
<path d="M2000 3770 c-12 -7 -10 -9 7 -7 12 0 19 5 17 9 -6 10 -6 10 -24 -2z"/>
<path d="M2050 3755 c7 -8 19 -15 27 -15 12 0 12 2 -1 15 -8 8 -20 15 -27 15
-9 0 -8 -4 1 -15z"/>
<path d="M2080 3715 c-8 -9 -8 -15 -2 -15 12 0 26 19 19 26 -2 2 -10 -2 -17
-11z"/>
<path d="M3333 3723 c-15 -5 -17 -23 -4 -23 5 0 11 7 15 15 3 8 4 15 3 14 -1
0 -8 -3 -14 -6z"/>
<path d="M3495 3710 c-3 -5 -1 -10 5 -10 6 0 8 -5 4 -11 -4 -7 1 -7 16 1 18
10 20 14 9 21 -18 11 -26 11 -34 -1z"/>
<path d="M3625 3653 c-3 -10 -1 -19 4 -21 6 -2 9 -8 5 -13 -3 -5 0 -9 5 -9 6
0 11 -9 11 -20 0 -13 7 -20 19 -20 17 0 18 4 11 29 -18 65 -42 88 -55 54z"/>
<path d="M4065 3560 c-3 -5 3 -22 13 -37 11 -16 27 -41 37 -58 11 -17 20 -24
23 -17 6 20 -28 110 -44 116 -20 8 -22 8 -29 -4z"/>
<path d="M3930 3534 c8 -8 15 -29 17 -47 2 -17 10 -41 18 -53 18 -28 84 -79
91 -71 6 6 -36 64 -86 121 l-25 28 25 -6 25 -7 -28 25 c-31 29 -58 36 -37 10z"/>
<path d="M3880 3515 c7 -9 15 -13 17 -11 7 7 -7 26 -19 26 -6 0 -6 -6 2 -15z"/>
<path d="M4015 3470 c3 -5 8 -10 11 -10 2 0 4 5 4 10 0 6 -5 10 -11 10 -5 0
-7 -4 -4 -10z"/>
<path d="M3797 3404 c-3 -6 18 -35 48 -64 30 -30 55 -50 55 -44 0 18 -96 118
-103 108z"/>
<path d="M4042 3318 c20 -24 44 -45 54 -46 13 -3 5 10 -26 42 -56 58 -74 60
-28 4z"/>
<path d="M1420 3265 c0 -8 4 -15 9 -15 5 0 11 7 15 15 3 9 0 15 -9 15 -8 0
-15 -7 -15 -15z"/>
<path d="M1910 3240 c0 -5 5 -10 10 -10 6 0 10 5 10 10 0 6 -4 10 -10 10 -5 0
-10 -4 -10 -10z"/>
<path d="M3972 3238 c3 -7 13 -15 24 -17 16 -3 17 -1 5 13 -16 19 -34 21 -29
4z"/>
<path d="M4810 3180 c-13 -9 -12 -12 4 -25 25 -19 31 -19 46 0 23 28 -16 48
-50 25z"/>
<path d="M4385 3170 c-3 -6 5 -10 19 -10 14 0 28 5 31 10 3 6 -5 10 -19 10
-14 0 -28 -4 -31 -10z"/>
<path d="M1935 3099 c-11 -16 -1 -19 13 -3 7 8 8 14 3 14 -5 0 -13 -5 -16 -11z"/>
<path d="M1950 3075 c-7 -9 -8 -15 -2 -15 5 0 12 7 16 15 3 8 4 15 2 15 -2 0
-9 -7 -16 -15z"/>
<path d="M4240 3025 c0 -16 9 -19 34 -9 20 8 11 24 -15 24 -10 0 -19 -7 -19
-15z"/>
<path d="M4565 2959 c-10 -15 -2 -19 23 -12 12 3 19 9 16 14 -7 12 -31 11 -39
-2z"/>
<path d="M2121 2946 c-10 -12 -7 -44 9 -104 1 -4 7 -5 14 -3 6 2 29 7 51 11
22 4 48 11 58 15 24 10 164 -4 180 -18 41 -38 135 -65 143 -42 2 6 -10 26 -27
44 -16 19 -23 31 -15 28 8 -3 18 -3 20 2 3 4 -1 8 -7 8 -7 0 -38 12 -69 26
-78 37 -128 46 -244 47 -75 0 -105 -4 -113 -14z"/>
<path d="M2193 2783 c4 -6 1 -14 -5 -16 -10 -4 -10 -6 0 -6 7 -1 11 -5 8 -10
-3 -5 6 -12 21 -16 15 -3 39 -18 53 -32 21 -23 22 -25 5 -19 -20 7 -20 7 1
-14 19 -19 23 -20 54 -6 20 8 41 11 50 6 23 -11 148 -22 154 -12 9 16 -11 33
-42 35 -18 1 -32 5 -32 10 0 4 -6 7 -14 7 -7 0 -25 9 -39 20 -27 22 -42 26
-32 9 9 -13 -64 17 -85 36 -20 18 -42 19 -58 3 -8 -8 -15 -8 -28 3 -10 8 -15
9 -11 2z"/>
<path d="M4408 2718 c-21 -6 -38 -14 -38 -18 0 -4 25 -11 55 -15 81 -10 123 9
76 35 -23 12 -43 11 -93 -2z"/>
<path d="M4805 2700 c-3 -5 -1 -10 4 -10 6 0 11 5 11 10 0 6 -2 10 -4 10 -3 0
-8 -4 -11 -10z"/>
<path d="M2240 2655 c0 -8 5 -15 10 -15 6 0 10 7 10 15 0 8 -4 15 -10 15 -5 0
-10 -7 -10 -15z"/>
<path d="M4700 2650 c0 -5 7 -10 15 -10 8 0 15 5 15 10 0 6 -7 10 -15 10 -8 0
-15 -4 -15 -10z"/>
<path d="M1290 2637 c-32 -16 -38 -37 -8 -29 27 7 52 29 40 36 -4 3 -19 -1
-32 -7z"/>
<path d="M2320 2600 c0 -5 6 -10 14 -10 8 0 18 5 21 10 3 6 -3 10 -14 10 -12
0 -21 -4 -21 -10z"/>
<path d="M4322 2589 c2 -6 8 -10 13 -10 5 0 11 4 13 10 2 6 -4 11 -13 11 -9 0
-15 -5 -13 -11z"/>
<path d="M4600 2580 c-13 -8 -13 -11 1 -25 18 -19 69 -11 69 10 0 23 -43 32
-70 15z"/>
<path d="M2110 2569 c0 -5 5 -7 10 -4 6 3 10 8 10 11 0 2 -4 4 -10 4 -5 0 -10
-5 -10 -11z"/>
<path d="M4070 2533 c-42 -14 -41 -17 5 -24 109 -16 194 -5 155 21 -15 10
-133 13 -160 3z"/>
<path d="M972 2504 c10 -10 20 -15 24 -12 3 4 -5 12 -18 18 -22 12 -22 12 -6
-6z"/>
<path d="M2052 2468 c-6 -6 -12 -21 -12 -31 0 -17 5 -19 40 -13 64 10 80 -4
80 -73 0 -32 -3 -60 -6 -64 -4 -3 -22 0 -41 8 -40 17 -89 20 -98 6 -9 -16 30
-31 79 -31 25 0 48 -4 51 -10 10 -15 71 -12 85 5 17 20 16 53 -5 114 -16 49
-49 86 -67 75 -5 -3 -14 -1 -21 4 -21 17 -72 23 -85 10z"/>
<path d="M4277 2439 c-26 -15 -11 -29 32 -29 21 0 52 -7 67 -15 37 -19 69 -19
88 0 17 17 12 41 -10 49 -9 3 -36 1 -60 -5 -34 -9 -52 -9 -70 0 -29 13 -25 13
-47 0z"/>
<path d="M4071 2424 c-18 -13 -20 -18 -10 -25 37 -23 112 2 94 31 -10 15 -58
12 -84 -6z"/>
<path d="M4982 2428 c3 -7 15 -15 28 -16 35 -6 170 8 170 17 0 4 -45 9 -101
10 -80 2 -100 0 -97 -11z"/>
<path d="M4837 2407 c-3 -8 -2 -19 3 -26 10 -17 50 3 50 24 0 19 -46 20 -53 2z"/>
<path d="M3953 2397 c-17 -7 -35 -15 -38 -19 -8 -7 58 -38 81 -38 21 0 38 38
23 56 -13 16 -23 17 -66 1z"/>
<path d="M1974 2339 c-10 -17 13 -36 27 -22 12 12 4 33 -11 33 -5 0 -12 -5
-16 -11z"/>
<path d="M3840 2326 c-152 -74 -269 -154 -366 -248 -34 -33 -86 -78 -115 -100
-30 -22 -70 -54 -89 -72 -56 -53 -82 -66 -128 -66 -90 0 -208 -80 -299 -204
-41 -54 -26 -74 24 -32 39 33 174 106 196 106 26 0 21 -11 -32 -71 -40 -45
-62 -59 -125 -83 -73 -27 -125 -69 -126 -99 -1 -7 -7 -48 -15 -92 -8 -44 -12
-90 -9 -102 3 -12 1 -30 -5 -40 -12 -21 -15 8 -16 137 l0 75 -29 0 c-25 0 -31
-6 -43 -40 -7 -22 -20 -43 -28 -48 -21 -11 -19 -40 4 -54 11 -7 29 -33 40 -57
15 -36 26 -47 53 -54 25 -6 36 -16 44 -41 8 -25 13 -29 21 -19 16 21 43 96 43
121 0 29 18 47 46 47 13 0 32 12 43 26 16 20 19 35 14 75 l-6 49 73 67 c73 68
126 95 140 73 5 -9 9 -9 14 -1 4 6 2 11 -4 11 -7 0 -8 6 0 19 12 23 53 37 130
46 63 7 75 12 84 40 5 18 24 33 105 87 30 20 101 24 101 6 0 -7 12 -25 27 -40
26 -27 26 -29 8 -42 -17 -12 -16 -14 21 -26 21 -7 44 -17 51 -22 13 -11 33 -3
33 14 0 5 -14 32 -32 59 -23 37 -38 49 -56 49 -22 0 -24 3 -18 31 3 17 6 39 6
48 0 14 17 19 88 29 48 7 101 13 117 15 29 3 29 3 -12 16 -30 10 -43 20 -43
33 0 17 8 18 88 18 48 -1 101 0 117 1 17 2 43 -1 59 -6 20 -5 27 -5 22 3 -12
20 -114 37 -157 25 -47 -12 -55 -4 -33 34 16 27 16 31 -3 74 -19 43 -24 47
-80 61 -63 16 -74 12 -87 -29 -4 -13 1 -29 13 -44 22 -27 32 -22 35 15 1 29
11 34 20 10 8 -22 8 -54 -1 -54 -5 0 -8 -16 -9 -35 0 -21 -9 -44 -22 -58 -12
-13 -22 -29 -22 -36 0 -10 -10 -12 -37 -8 -41 7 -75 39 -67 62 3 8 -2 34 -11
59 l-17 45 27 35 c29 38 149 132 211 165 83 44 104 77 24 37z m-315 -336 c-3
-5 13 -19 35 -32 51 -29 54 -58 7 -58 -52 0 -70 19 -63 66 3 21 5 40 6 42 0 2
5 0 10 -3 6 -4 8 -10 5 -15z"/>
<path d="M4533 2317 c-15 -13 -40 -27 -55 -31 -40 -9 -36 -30 3 -22 17 3 42 6
56 6 13 0 22 4 19 8 -2 4 11 7 29 7 42 -2 95 -36 185 -121 39 -37 73 -64 76
-61 13 12 -8 43 -36 54 -19 7 -37 26 -51 54 -16 32 -40 56 -86 87 -72 48 -100
52 -140 19z"/>
<path d="M4985 2325 c-33 -8 -66 -14 -72 -14 -28 -2 -10 -21 29 -32 31 -8 52
-8 79 0 20 6 46 11 58 11 16 0 21 6 21 25 0 30 -20 31 -115 10z"/>
<path d="M4055 2309 c-11 -17 1 -21 15 -4 8 9 8 15 2 15 -6 0 -14 -5 -17 -11z"/>
<path d="M4060 2268 c-12 -13 -20 -35 -20 -55 0 -18 -9 -50 -20 -70 -11 -21
-20 -43 -20 -50 0 -19 -8 -16 -42 12 -16 14 -35 25 -41 24 -8 0 -8 -2 1 -6 6
-2 12 -18 12 -33 0 -34 13 -45 38 -31 11 6 23 6 28 2 5 -5 20 -4 34 2 21 8 22
11 8 14 -23 6 -23 16 4 57 32 48 76 66 187 76 53 5 114 15 135 23 l40 14 -33
11 c-23 8 -38 9 -46 2 -7 -6 -48 -13 -92 -17 -77 -6 -80 -5 -100 21 -25 32
-46 33 -73 4z"/>
<path d="M1955 2270 c3 -4 14 -10 25 -13 11 -3 18 -2 15 3 -3 4 -14 10 -25 13
-11 3 -18 2 -15 -3z"/>
<path d="M1925 2230 c-16 -4 -25 -9 -20 -10 14 -3 -50 -20 -105 -28 -32 -5
-41 -10 -31 -16 11 -7 10 -11 -7 -20 -18 -10 -15 -11 24 -12 25 -1 40 2 34 6
-7 4 6 14 33 23 25 8 47 14 49 13 2 -2 15 -6 30 -10 20 -5 33 0 53 18 22 20
23 25 9 30 -9 4 -19 4 -22 1 -3 -3 1 -5 8 -5 7 0 11 -2 8 -5 -8 -9 -38 6 -32
16 3 5 4 8 2 8 -2 -1 -16 -5 -33 -9z"/>
<path d="M3940 2216 c0 -16 28 -42 36 -33 8 7 -14 47 -26 47 -6 0 -10 -6 -10
-14z"/>
<path d="M2070 2209 c-11 -8 -9 -9 10 -3 14 3 22 3 18 -1 -4 -5 0 -14 10 -21
23 -18 32 -17 32 1 0 8 -5 15 -11 15 -5 0 -8 4 -5 8 7 12 -37 13 -54 1z"/>
<path d="M4400 2199 c-36 -11 -96 -27 -135 -36 -79 -17 -105 -32 -59 -34 122
-6 187 2 260 32 41 17 73 36 71 43 -6 18 -68 16 -137 -5z"/>
<path d="M2155 2190 c-7 -11 22 -26 32 -16 4 3 -1 6 -11 6 -9 0 -14 5 -11 10
3 6 4 10 1 10 -3 0 -8 -5 -11 -10z"/>
<path d="M5005 2189 c-4 -6 -4 -13 -1 -16 8 -8 36 5 36 17 0 13 -27 13 -35 -1z"/>
<path d="M4652 2180 c5 -16 56 -56 62 -49 3 3 -11 18 -31 33 -20 16 -34 23
-31 16z"/>
<path d="M2090 2165 c0 -8 -4 -15 -10 -15 -5 0 -10 4 -10 8 0 4 -9 8 -19 9
-13 1 -18 -3 -14 -13 3 -7 9 -11 14 -8 5 2 17 1 27 -5 15 -8 18 -5 20 15 1 13
0 24 -3 24 -3 0 -5 -7 -5 -15z"/>
<path d="M1766 2125 c-3 -9 3 -19 16 -26 11 -6 18 -7 14 -1 -3 5 1 12 9 16 8
3 14 2 14 -2 -4 -26 2 -30 33 -21 17 5 36 13 42 19 8 8 5 9 -8 4 -13 -5 -17
-4 -13 3 10 16 -33 24 -57 11 -15 -8 -21 -8 -24 1 -5 16 -19 14 -26 -4z"/>
<path d="M2260 2114 c0 -14 -7 -15 -42 -9 -69 12 -128 14 -122 4 3 -5 10 -7
15 -4 5 4 9 1 9 -4 0 -6 7 -11 15 -11 8 0 22 -11 31 -25 12 -18 23 -24 38 -20
11 2 15 2 9 -1 -7 -3 -13 -10 -13 -15 0 -6 8 -6 19 1 25 13 118 13 126 0 8
-13 25 -13 25 0 0 16 -81 100 -96 100 -8 0 -14 -7 -14 -16z"/>
<path d="M4070 2115 c0 -7 141 -47 147 -41 12 12 -65 46 -104 46 -24 0 -43 -2
-43 -5z"/>
<path d="M2065 2100 c3 -5 11 -10 16 -10 6 0 7 5 4 10 -3 6 -11 10 -16 10 -6
0 -7 -4 -4 -10z"/>
<path d="M4465 2076 l-30 -12 27 -18 c18 -11 42 -17 70 -15 57 4 71 -5 63 -42
-6 -28 -5 -29 28 -29 21 0 41 -7 52 -20 16 -18 20 -19 27 -6 12 21 -4 48 -60
108 -42 45 -47 48 -96 48 -28 -1 -64 -7 -81 -14z"/>
<path d="M4867 2053 c-3 -5 8 -34 24 -67 16 -32 53 -125 84 -207 77 -208 122
-295 126 -246 2 25 -3 62 -11 72 -4 6 -11 24 -14 41 -4 17 -18 42 -32 54 -19
19 -24 33 -24 74 0 43 -5 55 -32 83 -26 27 -33 42 -32 76 0 30 -6 46 -19 56
-12 9 -17 22 -14 37 2 14 -2 25 -10 28 -20 8 -41 7 -46 -1z"/>
<path d="M4010 2032 l-25 -20 35 1 c30 2 37 -2 50 -31 8 -18 24 -34 35 -36 11
-2 45 -10 75 -16 73 -16 104 -11 108 16 3 19 -3 23 -47 29 -28 4 -49 11 -45
16 3 5 -1 6 -9 4 -7 -3 -31 6 -52 21 -53 36 -94 41 -125 16z"/>
<path d="M4263 2029 c-18 -5 -33 -12 -33 -14 0 -3 25 -5 56 -5 40 0 55 4 52
13 -6 16 -34 18 -75 6z"/>
<path d="M1671 2004 c-10 -23 -10 -26 4 -20 9 3 23 6 31 6 8 0 14 9 13 23 0
12 -3 16 -6 9 -3 -9 -9 -10 -17 -2 -10 7 -16 3 -25 -16z"/>
<path d="M4402 1998 c5 -15 76 -34 86 -23 4 4 -2 13 -12 21 -25 18 -79 19 -74
2z"/>
<path d="M1810 1989 c0 -5 -4 -7 -10 -4 -17 10 -11 -2 8 -16 9 -7 14 -9 10 -5
-4 5 0 15 10 22 16 13 16 13 0 14 -10 0 -18 -5 -18 -11z"/>
<path d="M2226 1946 c3 -8 0 -17 -7 -22 -8 -4 -10 -3 -5 4 4 7 2 12 -3 12 -15
0 -13 -11 5 -35 15 -20 15 -20 20 1 4 16 11 20 30 16 28 -5 35 22 8 32 -29 11
-54 7 -48 -8z"/>
<path d="M3880 1930 c0 -5 4 -10 8 -10 5 0 27 -16 49 -35 23 -19 48 -35 57
-35 9 0 84 -22 167 -50 104 -34 159 -48 178 -44 59 15 141 69 141 93 0 15
-183 30 -392 32 -91 1 -118 4 -118 15 0 7 -10 20 -22 28 -25 18 -68 21 -68 6z"/>
<path d="M2158 1913 c7 -3 16 -2 19 1 4 3 -2 6 -13 5 -11 0 -14 -3 -6 -6z"/>
<path d="M4635 1890 c-3 -5 -1 -10 4 -10 6 0 11 -7 11 -15 0 -9 10 -20 23 -26
20 -9 47 -50 47 -73 0 -5 -12 -23 -27 -38 l-27 -28 36 0 c30 0 37 -4 40 -22 2
-13 1 -34 -3 -48 -3 -14 -5 -49 -5 -77 1 -29 -3 -53 -9 -53 -5 0 0 -10 12 -21
25 -26 53 -19 53 12 0 11 -7 46 -16 76 -12 43 -14 61 -5 80 16 35 14 75 -6
103 -9 13 -18 31 -18 41 -3 33 -59 108 -82 109 -12 0 -25 -4 -28 -10z"/>
<path d="M3793 1826 c32 -14 67 -32 78 -42 10 -9 22 -15 25 -12 13 14 -106 78
-143 78 -10 0 8 -11 40 -24z"/>
<path d="M5065 1840 c3 -5 13 -10 21 -10 8 0 14 5 14 10 0 6 -9 10 -21 10 -11
0 -17 -4 -14 -10z"/>
<path d="M1550 1829 c-12 -8 -10 -9 7 -4 18 5 22 3 17 -9 -4 -10 -1 -16 7 -16
11 0 11 -3 -1 -10 -12 -8 -11 -10 8 -10 12 0 22 5 22 11 0 5 4 7 10 4 5 -3 18
-1 27 5 17 11 17 11 -1 6 -16 -6 -17 -4 -6 9 7 8 9 15 4 16 -5 0 -25 2 -44 5
-19 2 -42 -1 -50 -7z"/>
<path d="M2035 1833 c-80 -4 -102 -10 -102 -27 0 -14 54 -29 62 -17 2 4 30 8
62 9 41 1 54 -1 43 -8 -13 -9 -13 -10 0 -10 23 0 43 17 36 29 -4 6 -3 11 3 11
5 0 12 -4 15 -8 7 -11 68 -14 85 -3 22 14 2 32 -29 27 -16 -2 -34 -7 -39 -11
-6 -3 -19 -2 -28 4 -11 6 -24 6 -36 -1 -14 -7 -17 -7 -13 1 4 6 6 10 4 9 -2
-1 -30 -3 -63 -5z"/>
<path d="M1545 1800 c-3 -5 -1 -10 4 -10 6 0 11 5 11 10 0 6 -2 10 -4 10 -3 0
-8 -4 -11 -10z"/>
<path d="M2218 1783 c6 -2 18 -2 25 0 6 3 1 5 -13 5 -14 0 -19 -2 -12 -5z"/>
<path d="M2221 1751 l-34 -18 49 -13 c27 -8 59 -13 71 -11 12 1 30 -2 41 -8
14 -7 19 -7 19 4 0 8 -7 11 -16 7 -9 -3 -13 -2 -9 2 11 12 -42 56 -66 55 -12
-1 -36 -9 -55 -18z"/>
<path d="M3479 1753 c-13 -15 -12 -15 9 -4 23 12 28 21 13 21 -5 0 -15 -7 -22
-17z"/>
<path d="M4490 1750 c0 -10 52 -40 70 -40 14 0 13 30 -2 34 -40 13 -68 15 -68
6z"/>
<path d="M1145 1720 c3 -5 8 -10 11 -10 2 0 4 5 4 10 0 6 -5 10 -11 10 -5 0
-7 -4 -4 -10z"/>
<path d="M3480 1701 c13 -25 13 -61 0 -61 -6 0 6 -17 26 -37 20 -21 49 -61 65
-88 34 -60 75 -101 147 -143 72 -44 234 -112 263 -112 21 1 14 10 -46 65 -38
36 -75 65 -83 65 -8 0 -12 6 -9 15 4 8 2 17 -4 21 -14 8 -41 -17 -35 -33 9
-23 -23 -14 -72 18 -83 56 -109 109 -54 109 15 0 42 9 60 20 40 24 48 21 56
-25 7 -35 20 -46 29 -22 16 41 -29 137 -65 137 -11 0 -43 -16 -69 -35 l-49
-35 0 28 -1 27 -24 -29 -24 -30 -6 30 c-21 96 -47 134 -95 134 -17 0 -19 -3
-10 -19z"/>
<path d="M3970 1693 c8 -3 24 -14 35 -24 11 -11 50 -42 87 -70 37 -28 66 -55
63 -59 -2 -4 3 -14 13 -22 27 -24 82 -50 82 -38 0 5 -6 10 -13 10 -7 0 -45 30
-83 68 -82 78 -166 142 -186 141 -9 0 -9 -2 2 -6z"/>
<path d="M3390 1672 c0 -9 44 -32 62 -32 6 0 -1 9 -15 20 -26 21 -47 26 -47
12z"/>
<path d="M2018 1653 c25 -10 2 -20 -37 -16 -34 3 -42 0 -52 -19 -6 -13 -8 -20
-4 -16 4 4 19 1 34 -6 36 -19 81 -31 61 -17 -11 8 -5 11 28 11 48 0 53 16 11
37 -13 7 -19 13 -14 13 6 0 3 5 -5 10 -8 5 -19 9 -25 9 -5 0 -4 -3 3 -6z"/>
<path d="M3320 1630 c0 -12 8 -12 35 0 18 8 17 9 -7 9 -16 1 -28 -3 -28 -9z"/>
<path d="M3890 1623 c0 -5 32 -27 72 -49 39 -21 85 -54 102 -71 56 -60 77 -34
27 34 -19 26 -46 47 -81 62 -61 26 -120 38 -120 24z"/>
<path d="M3348 1595 c-17 -23 -17 -24 8 -44 15 -12 38 -21 51 -21 27 0 63 16
63 29 0 13 -58 34 -75 27 -10 -4 -15 1 -15 14 0 26 -11 25 -32 -5z"/>
<path d="M2630 1584 c-32 -32 -11 -31 24 1 15 14 21 25 14 24 -7 0 -24 -11
-38 -25z"/>
<path d="M4915 1591 c-24 -5 -26 -8 -12 -14 21 -8 77 2 77 14 0 10 -20 10 -65
0z"/>
<path d="M2048 1573 c7 -3 16 -2 19 1 4 3 -2 6 -13 5 -11 0 -14 -3 -6 -6z"/>
<path d="M3205 1540 c-17 -18 -17 -20 0 -26 11 -5 25 2 41 20 l25 26 -24 0
c-13 0 -32 -9 -42 -20z"/>
<path d="M3130 1515 c0 -38 28 -75 56 -75 9 0 32 -16 50 -36 33 -34 82 -49
101 -30 15 15 -88 84 -142 96 -26 5 -30 11 -33 43 -4 50 -32 52 -32 2z"/>
<path d="M2990 1469 c0 -5 5 -7 10 -4 6 3 10 8 10 11 0 2 -4 4 -10 4 -5 0 -10
-5 -10 -11z"/>
<path d="M3872 1448 c9 -13 24 -25 34 -27 17 -3 16 0 -5 23 -30 32 -49 34 -29
4z"/>
<path d="M5000 1451 c0 -10 30 -24 37 -17 3 2 -5 9 -16 16 -12 6 -21 7 -21 1z"/>
<path d="M4180 1416 c0 -48 71 -91 110 -67 12 8 12 13 -4 30 -11 12 -25 21
-31 21 -7 0 -24 9 -38 20 -32 26 -37 25 -37 -4z"/>
<path d="M4320 1432 c0 -12 39 -52 50 -52 14 0 -9 34 -31 49 -11 6 -19 7 -19
3z"/>
<path d="M4740 1431 c0 -6 5 -13 10 -16 6 -3 10 1 10 9 0 9 -4 16 -10 16 -5 0
-10 -4 -10 -9z"/>
<path d="M3058 1404 c-18 -17 -8 -44 16 -44 13 0 36 -10 50 -21 23 -18 25 -24
14 -35 -11 -11 -23 -10 -70 8 -32 11 -65 17 -75 14 -16 -7 -16 -9 5 -25 34
-25 153 -70 204 -76 24 -3 52 -8 63 -10 l20 -5 -20 9 c-11 5 -28 12 -37 15
-12 4 -18 16 -18 37 0 29 2 31 28 23 15 -4 74 -8 132 -8 98 -1 105 -2 105 -21
0 -11 -11 -25 -24 -31 -44 -22 -55 -59 -16 -52 13 3 22 1 19 -3 -3 -5 0 -9 7
-9 7 0 9 -3 6 -7 -4 -3 2 -13 14 -21 11 -8 23 -11 26 -8 3 3 -2 8 -11 12 -9 3
-13 10 -10 15 3 5 1 9 -3 9 -5 0 -9 9 -9 20 0 11 5 18 11 16 5 -2 9 -9 7 -15
-1 -6 4 -11 12 -11 18 0 58 -49 50 -61 -3 -5 3 -6 13 -2 15 6 16 4 6 -9 -16
-19 -7 -28 30 -28 28 0 29 -2 23 -30 -6 -32 16 -102 42 -132 9 -11 33 -18 66
-20 38 -2 51 -7 51 -19 0 -8 7 -23 15 -32 8 -9 31 -39 50 -66 35 -51 38 -52
86 -34 17 6 28 -48 12 -58 -9 -6 -10 -9 -1 -9 7 0 28 -14 47 -31 36 -31 95
-67 156 -95 19 -9 45 -25 56 -35 l21 -20 79 60 c93 70 259 221 244 221 -6 0
-9 4 -6 9 3 5 -9 14 -27 22 -17 7 -44 21 -59 31 -14 10 -36 18 -48 18 l-22 0
22 18 23 18 -55 27 c-30 15 -60 27 -66 27 -7 0 -12 5 -12 10 0 6 -16 10 -36
10 -21 0 -33 4 -29 10 3 6 0 10 -9 10 -8 0 -16 -6 -19 -12 -3 -10 -12 -9 -35
5 -16 9 -37 17 -46 17 -12 0 -15 6 -10 25 5 22 3 24 -12 18 -18 -6 -18 -6 0
15 17 19 17 22 3 22 -10 0 -17 4 -17 9 0 10 -19 9 -37 -2 -8 -5 -13 -3 -13 3
0 6 -8 10 -17 9 -10 -2 -47 12 -83 29 l-65 33 45 -7 c25 -4 54 -13 65 -20 20
-15 85 -19 85 -6 0 4 34 7 75 7 80 0 102 15 38 27 -94 17 -141 28 -178 42 -22
8 -59 15 -82 16 -23 0 -54 5 -69 10 -20 8 -29 8 -34 0 -9 -14 -60 2 -180 58
-123 57 -280 75 -280 32 0 -28 -105 2 -178 51 -46 31 -110 48 -124 33z m692
-422 c0 -3 -9 3 -20 13 -11 10 -20 23 -20 28 0 6 9 0 20 -13 11 -13 20 -25 20
-28z m190 -161 c0 -6 -4 -13 -10 -16 -5 -3 -10 1 -10 9 0 9 5 16 10 16 6 0 10
-4 10 -9z m475 -51 c3 -5 2 -10 -4 -10 -5 0 -13 5 -16 10 -3 6 -2 10 4 10 5 0
13 -4 16 -10z"/>
<path d="M4460 1361 c19 -4 46 -13 58 -20 13 -7 26 -10 29 -8 10 10 -57 37
-89 36 l-33 -1 35 -7z"/>
<path d="M4724 1355 c-11 -8 -14 -15 -6 -15 14 0 17 -20 3 -20 -5 0 -22 -5
-38 -12 -15 -6 -35 -10 -42 -9 -13 2 -13 0 -2 -13 21 -25 50 -19 88 19 49 49
77 45 117 -15 25 -38 20 -50 -19 -50 -20 0 -47 -7 -60 -16 -14 -9 -31 -14 -39
-11 -10 4 -13 1 -10 -8 8 -21 192 -17 204 4 16 30 -53 123 -109 147 -43 18
-62 18 -87 -1z"/>
<path d="M4598 1353 c7 -3 16 -2 19 1 4 3 -2 6 -13 5 -11 0 -14 -3 -6 -6z"/>
<path d="M3990 1340 c-13 -8 -13 -10 2 -10 9 0 20 5 23 10 8 13 -5 13 -25 0z"/>
<path d="M4070 1340 c0 -5 -9 -10 -20 -10 -11 0 -20 -4 -20 -10 0 -13 27 -13
35 0 5 8 11 7 21 0 7 -7 18 -10 23 -8 5 1 -2 11 -15 21 -13 10 -24 13 -24 7z"/>
<path d="M4600 1275 c13 -14 26 -23 28 -20 7 7 -29 45 -41 45 -6 0 0 -11 13
-25z"/>
<path d="M3785 1240 c3 -5 11 -10 16 -10 6 0 7 5 4 10 -3 6 -11 10 -16 10 -6
0 -7 -4 -4 -10z"/>
<path d="M4350 1220 c-12 -8 -9 -10 13 -10 16 0 26 4 22 10 -8 12 -16 12 -35
0z"/>
<path d="M2936 1211 c-8 -13 3 -38 18 -44 22 -9 119 7 123 20 3 7 -7 17 -22
23 -33 12 -112 13 -119 1z"/>
<path d="M4405 1210 c-3 -5 1 -13 10 -16 22 -9 29 1 11 15 -10 8 -16 9 -21 1z"/>
<path d="M4665 1204 c11 -8 19 -17 18 -19 -2 -3 0 -19 4 -35 7 -37 37 -67 83
-86 31 -13 33 -12 16 1 -11 8 -16 15 -11 15 5 0 -5 15 -22 33 -16 17 -42 49
-58 70 -15 20 -32 37 -39 37 -6 0 -2 -7 9 -16z"/>
<path d="M3075 1148 c-9 -14 -11 -24 -5 -26 16 -6 62 27 55 38 -10 17 -33 11
-50 -12z"/>
<path d="M4305 1150 c-25 -16 -27 -20 -12 -26 17 -6 57 20 57 38 0 13 -12 10
-45 -12z"/>
<path d="M2544 1129 c-24 -26 -8 -37 50 -35 31 1 42 5 44 20 8 38 -62 50 -94
15z"/>
<path d="M2847 1143 c-16 -15 -6 -33 18 -33 31 0 32 -14 3 -34 -22 -15 -22
-16 -2 -16 21 0 84 58 84 78 0 18 -38 15 -48 -4 -8 -15 -10 -15 -15 0 -6 16
-28 21 -40 9z"/>
<path d="M4594 1141 c-17 -4 -35 -11 -40 -14 -6 -3 -28 -2 -50 3 -51 12 -71
-5 -27 -22 l32 -12 -57 -18 c-31 -10 -64 -15 -73 -13 -9 3 -24 3 -33 -1 -13
-5 -14 -9 -5 -20 13 -16 50 -18 93 -4 17 5 74 17 126 27 95 18 95 18 95 48 0
33 -11 38 -61 26z"/>
<path d="M3505 1080 c3 -5 10 -10 16 -10 5 0 9 5 9 10 0 6 -7 10 -16 10 -8 0
-12 -4 -9 -10z"/>
<path d="M4735 1000 c3 -5 11 -10 16 -10 6 0 7 5 4 10 -3 6 -11 10 -16 10 -6
0 -7 -4 -4 -10z"/>
<path d="M4480 910 c0 -5 5 -10 11 -10 5 0 7 5 4 10 -3 6 -8 10 -11 10 -2 0
-4 -4 -4 -10z"/>
<path d="M4560 820 c0 -5 9 -10 20 -10 11 0 20 5 20 10 0 6 -9 10 -20 10 -11
0 -20 -4 -20 -10z"/>
<path d="M2715 587 c-31 -14 -95 -80 -95 -98 0 -23 33 -19 77 11 48 31 48 31
166 28 64 -2 117 0 117 4 0 11 -44 38 -78 47 -62 18 -156 22 -187 8z"/>
<path d="M2590 495 c-10 -12 -10 -15 4 -15 9 0 16 7 16 15 0 8 -2 15 -4 15 -2
0 -9 -7 -16 -15z"/>
<path d="M3435 370 c3 -5 11 -10 16 -10 6 0 7 5 4 10 -3 6 -11 10 -16 10 -6 0
-7 -4 -4 -10z"/>
<path d="M2920 310 c0 -5 5 -10 10 -10 6 0 10 5 10 10 0 6 -4 10 -10 10 -5 0
-10 -4 -10 -10z"/>
<path d="M3760 280 c0 -6 7 -10 15 -10 8 0 15 2 15 4 0 2 -7 6 -15 10 -8 3
-15 1 -15 -4z"/>
<path d="M3545 250 c-3 -5 -2 -10 4 -10 5 0 13 5 16 10 3 6 2 10 -4 10 -5 0
-13 -4 -16 -10z"/>
<path d="M2590 200 c-26 -26 -20 -36 12 -19 12 7 29 12 37 10 7 -1 11 4 9 11
-8 22 -35 21 -58 -2z"/>
<path d="M2808 207 c-37 -14 -35 -27 3 -27 36 0 72 17 64 31 -8 11 -32 10 -67
-4z"/>
<path d="M3665 210 c3 -5 10 -10 16 -10 5 0 9 5 9 10 0 6 -7 10 -16 10 -8 0
-12 -4 -9 -10z"/>
<path d="M3254 194 c3 -9 6 -25 6 -35 0 -32 54 -22 58 10 4 27 -12 41 -47 41
-17 0 -22 -4 -17 -16z"/>
<path d="M2525 149 c-12 -19 5 -23 22 -6 16 16 16 17 1 17 -9 0 -20 -5 -23
-11z"/>
<path d="M3000 149 c0 -5 5 -7 10 -4 6 3 10 8 10 11 0 2 -4 4 -10 4 -5 0 -10
-5 -10 -11z"/>
<path d="M2734 110 c-11 -4 -28 -19 -37 -33 -10 -16 -26 -25 -44 -26 -70 -4
-138 0 -143 8 -13 20 -52 23 -72 5 -11 -11 -32 -24 -46 -30 -25 -10 -21 -11
38 -17 157 -15 352 -19 456 -8 165 17 278 33 289 39 21 13 -62 20 -109 10 -35
-7 -59 -7 -85 1 -31 10 -41 9 -76 -8 -21 -12 -51 -21 -66 -21 -32 0 -51 20
-39 40 5 8 6 18 4 22 -3 4 5 7 17 5 12 -1 24 4 26 11 5 14 -79 16 -113 2z"/>
<path d="M2590 90 c0 -5 7 -10 15 -10 8 0 15 5 15 10 0 6 -7 10 -15 10 -8 0
-15 -4 -15 -10z"/>
</g>
</svg>
